SplineFontDB: 3.0
FontName: Farbod-Regular
FullName: Farbod Regular
FamilyName: Farbod
Weight: Regular
Copyright: Copyright (c) 2016, Mohammad Saleh Souzanchi (info@font-store.ir), with Reserved Font Name "Farbod"
UComments: "2015-5-13: Created with FontForge (http://fontforge.org)"
Version: Version:3.2.5;RFB:1.2.5;Building:2016-06-12 13:21:04.976598
FONDName: RITA
ItalicAngle: 0
UnderlinePosition: 500
UnderlineWidth: 59
Ascent: 800
Descent: 500
InvalidEm: 0
sfntRevision: 0x00010000
LayerCount: 2
Layer: 0 0 "Back" 1
Layer: 1 0 "Fore" 0
PreferredKerning: 4
XUID: [1021 828 -1901974348 32649]
StyleMap: 0x0040
FSType: 0
OS2Version: 0
OS2_WeightWidthSlopeOnly: 0
OS2_UseTypoMetrics: 0
CreationTime: 1431477301
ModificationTime: 1465726864
PfmFamily: 33
TTFWeight: 400
TTFWidth: 5
LineGap: 0
VLineGap: 0
Panose: 2 0 5 3 0 0 0 0 0 0
OS2TypoAscent: 800
OS2TypoAOffset: 0
OS2TypoDescent: -500
OS2TypoDOffset: 0
OS2TypoLinegap: 0
OS2WinAscent: 1100
OS2WinAOffset: 0
OS2WinDescent: 700
OS2WinDOffset: 0
HheadAscent: 1100
HheadAOffset: 0
HheadDescent: -700
HheadDOffset: 0
OS2SubXSize: 780
OS2SubYSize: 839
OS2SubXOff: -107
OS2SubYOff: 168
OS2SupXSize: 780
OS2SupYSize: 839
OS2SupXOff: 369
OS2SupYOff: 575
OS2StrikeYSize: 59
OS2StrikeYPos: 310
OS2Vendor: 'RITA'
OS2CodePages: 00000040.00000000
OS2UnicodeRanges: 80002003.80002000.00000008.00000000
MacStyle: 0
Lookup: 4 1 1 "'ccmp' Glyph Composition/Decomposition in Arabic lookup 5" { "'ccmp' Glyph Composition/Decomposition in Arabic lookup 5-1"  } ['ccmp' ('DFLT' <'dflt' > 'arab' <'dflt' > ) ]
Lookup: 1 9 0 "'isol' Isolated Forms in Latin lookup 1" { "'isol' Isolated Forms in Latin lookup 1-1"  } ['isol' ('DFLT' <'dflt' > 'arab' <'dflt' > ) ]
Lookup: 1 9 0 "'fina' Terminal Forms in Arabic lookup 3" { "'fina' Terminal Forms in Arabic lookup 3-1"  } ['fina' ('DFLT' <'dflt' > 'arab' <'dflt' > ) ]
Lookup: 1 9 0 "'medi' Medial Forms in Arabic lookup 2" { "'medi' Medial Forms in Arabic lookup 2-1"  } ['medi' ('DFLT' <'dflt' > 'arab' <'dflt' > ) ]

StartChar: _.alef.isol
Encoding: 65536 -1 0
GlifName: _.alef.isol
Width: 215
VWidth: 1304
GlyphClass: 2
Flags: HMW
LayerCount: 2
Fore
SplineSet
64 618 m 1
 124 700 l 1
 132 697 l 1
 135 619 151 450 151 296 c 0
 151 148 136 13 80 -17 c 1
 68 -0 l 1
 82 28 87 95 87 176 c 0
 87 334 68 544 64 618 c 1
EndSplineSet
Colour: ffda6b
EndChar

StartChar: _.alef.fina
Encoding: 65537 -1 1
GlifName: _.alef.fina
Width: 235
VWidth: 1304
GlyphClass: 2
Flags: HMW
LayerCount: 2
Fore
SplineSet
64 618 m 1
 123 700 l 1
 132 697 l 1
 135 593 136 489 136 386 c 0
 136 334 135 282 135 230 c 2
 135 172 l 1
 139 110 180 100 230 100 c 2
 235 100 l 1
 235 -0 l 1
 225 -0 l 2
 197 0 175 4 158 10 c 0
 112 27 76 59 76 195 c 0
 76 197 76 200 76 202 c 0
 76 213 76 224 76 237 c 0
 76 307 75 412 64 618 c 1
EndSplineSet
Colour: ffda6b
EndChar

StartChar: _.beh.isol
Encoding: 65540 -1 4
GlifName: _.beh.isol
Width: 819
VWidth: 1304
GlyphClass: 2
UnlinkRmOvrlpSave: 1
Flags: HMW
LayerCount: 2
Fore
SplineSet
64 175 m 0
 64 212 72 256 89 308 c 1
 119 298 l 1
 111 271 108 247 108 226 c 0
 108 103 237 90 380 90 c 0
 531 91 692 126 702 151 c 1
 698 162 693 175 687 187 c 2
 655 247 l 1
 699 338 l 1
 731 277 l 2
 746 246 755 212 755 178 c 0
 755 166 754 155 752 143 c 1
 752 138 l 1
 745 100 735 73 709 53 c 0
 675 28 525 -10 380 -11 c 0
 221 -11 64 9 64 175 c 0
EndSplineSet
Colour: ffda6b
EndChar

StartChar: _.beh.fina
Encoding: 65541 -1 5
GlifName: _.beh.fina
Width: 876
VWidth: 1304
GlyphClass: 2
UnlinkRmOvrlpSave: 1
Flags: HMW
LayerCount: 2
Fore
SplineSet
842 -0 m 2
 779 0 740 18 719 61 c 1
 717 59 713 55 709 53 c 0
 675 28 525 -10 380 -11 c 0
 221 -11 64 9 64 175 c 0
 64 212 72 256 89 308 c 1
 119 298 l 1
 111 271 108 247 108 226 c 0
 108 103 237 90 380 90 c 0
 490 90 604 109 662 129 c 0
 685 138 698 145 699 152 c 2
 709 220 l 1
 759 240 l 1
 751 159 l 2
 751 156 750 153 750 150 c 0
 750 108 804 100 839 100 c 2
 876 100 l 1
 876 -0 l 1
 842 -0 l 2
EndSplineSet
Colour: ffda6b
EndChar

StartChar: _.beh.medi
Encoding: 65542 -1 6
GlifName: _.beh.medi
Width: 364
VWidth: 1304
GlyphClass: 2
UnlinkRmOvrlpSave: 1
Flags: HMW
LayerCount: 2
Fore
SplineSet
-50 50 m 0
 -49 75 -26 100 0 100 c 2
 80 100 l 2
 153 100 180 120 186 152 c 1
 196 220 l 1
 247 240 l 1
 238 159 l 2
 238 156 237 153 237 150 c 0
 237 108 292 100 327 100 c 2
 364 100 l 1
 364 -0 l 1
 329 -0 l 2
 267 0 235 17 210 55 c 1
 184 21 140 0 61 -0 c 2
 0 -0 l 2
 -26 0 -50 24 -50 50 c 0
EndSplineSet
Colour: ffda6b
EndChar

StartChar: _.beh.init
Encoding: 65543 -1 7
GlifName: _.beh.init
Width: 303
VWidth: 1197
GlyphClass: 1
UnlinkRmOvrlpSave: 1
Flags: HMW
LayerCount: 2
Fore
SplineSet
-50 49 m 0
 -50 76 -27 100 -1 100 c 2
 79 100 l 2
 133 100 168 106 191 120 c 1
 190 140 182 161 170 187 c 1
 138 247 l 1
 183 338 l 1
 215 277 l 1
 230 246 238 213 239 180 c 1
 239 172 l 1
 237 62 192 0 79 -0 c 2
 -1 -0 l 2
 -25 0 -50 24 -50 49 c 0
EndSplineSet
Colour: ffda6b
EndChar

StartChar: _.heh.isol
Encoding: 65544 -1 8
GlifName: _.heh.isol
Width: 677
VWidth: 1304
GlyphClass: 1
UnlinkRmOvrlpSave: 1
Flags: HMW
LayerCount: 2
Fore
SplineSet
64 203 m 1
 112 310 147 349 206 349 c 0
 306 349 436 285 566 279 c 1
 581 279 l 1
 560 180 l 1
 551 180 543 180 534 181 c 0
 296 171 128 17 128 -104 c 0
 128 -184 201 -250 377 -250 c 0
 379 -250 381 -250 383 -250 c 0
 445 -250 518 -242 607 -222 c 1
 613 -249 l 1
 533 -317 434 -350 342 -350 c 0
 341 -350 339 -350 338 -350 c 0
 172 -350 87 -239 87 -110 c 0
 87 12 163 150 320 225 c 1
 270 239 224 250 186 250 c 0
 145 250 119 235 91 188 c 1
 64 203 l 1
EndSplineSet
Colour: ffda6b
EndChar

StartChar: _.heh.fina
Encoding: 65545 -1 9
GlifName: _.heh.fina
Width: 646
VWidth: 1304
GlyphClass: 1
UnlinkRmOvrlpSave: 1
Flags: HMW
LayerCount: 2
Fore
SplineSet
64 203 m 1
 112 310 147 349 206 349 c 0
 306 349 436 285 566 279 c 1
 581 279 l 1
 560 180 l 1
 551 180 543 180 534 181 c 0
 509 180 485 177 462 173 c 1
 488 120 544 100 625 100 c 2
 646 100 l 1
 646 -0 l 1
 625 -0 l 2
 482 0 426 56 409 159 c 1
 409 161 l 1
 239 114 128 -6 128 -105 c 0
 128 -185 201 -250 376 -250 c 0
 378 -250 381 -250 383 -250 c 0
 445 -250 518 -242 607 -222 c 1
 613 -249 l 1
 533 -317 434 -350 342 -350 c 0
 341 -350 339 -350 338 -350 c 0
 172 -350 87 -239 87 -110 c 0
 87 12 163 150 320 225 c 1
 270 239 224 250 186 250 c 0
 145 250 119 235 91 188 c 1
 64 203 l 1
EndSplineSet
Colour: ffda6b
EndChar

StartChar: _.heh.medi
Encoding: 65546 -1 10
GlifName: _.heh.medi
Width: 628
VWidth: 1304
GlyphClass: 1
UnlinkRmOvrlpSave: 1
Flags: HMW
LayerCount: 2
Fore
SplineSet
-50 49 m 0
 -50 76 -27 100 -1 100 c 2
 83 100 l 2
 239 100 325 162 404 214 c 1
 404 216 l 1
 331 244 266 279 209 279 c 0
 168 279 144 266 114 218 c 1
 88 234 l 1
 135 340 169 380 228 380 c 0
 333 380 449 279 586 279 c 1
 563 180 l 1
 558 180 l 2
 525 180 497 173 470 162 c 1
 498 118 552 100 628 100 c 1
 628 -0 l 1
 496 0 439 46 417 135 c 1
 328 82 245 0 79 -0 c 2
 -1 -0 l 2
 -25 0 -50 24 -50 49 c 0
EndSplineSet
Colour: ffda6b
EndChar

StartChar: _.heh.init
Encoding: 65547 -1 11
GlifName: _.heh.init
Width: 650
VWidth: 1304
GlyphClass: 1
UnlinkRmOvrlpSave: 1
Flags: HMW
LayerCount: 2
Fore
SplineSet
-50 49 m 0
 -50 76 -27 100 -1 100 c 2
 83 100 l 2
 241 100 327 163 406 215 c 1
 333 243 267 279 209 279 c 0
 168 279 144 266 114 218 c 1
 88 234 l 1
 135 340 169 380 228 380 c 0
 333 380 449 279 586 279 c 1
 563 180 l 1
 558 180 l 2
 388 180 325 0 79 -0 c 2
 -1 -0 l 2
 -25 0 -50 24 -50 49 c 0
EndSplineSet
Colour: ffda6b
EndChar

StartChar: _.sin.isol
Encoding: 65548 -1 12
GlifName: _.sin.isol
Width: 962
VWidth: 1304
GlyphClass: 1
UnlinkRmOvrlpSave: 1
Flags: HMW
LayerCount: 2
Fore
SplineSet
64 -50 m 0
 64 -5 74 48 98 109 c 1
 129 100 l 1
 115 61 109 26 109 -4 c 0
 109 -110 186 -158 272 -158 c 0
 358 -158 453 -109 484 -21 c 1
 480 47 447 103 422 150 c 1
 466 240 l 1
 478 218 488 198 498 177 c 1
 498 176 l 1
 503 166 506 158 510 149 c 0
 531 108 555 100 605 100 c 0
 651 101 664 124 673 165 c 2
 685 220 l 1
 726 209 l 1
 718 170 l 1
 715 148 l 2
 715 145 714 143 714 140 c 0
 714 117 731 100 785 100 c 0
 806 101 823 104 837 109 c 1
 813 228 l 1
 880 303 l 1
 893 236 l 2
 896 221 898 207 898 191 c 0
 898 183 898 175 897 167 c 0
 896 87 836 0 771 -0 c 0
 725 0 690 19 673 50 c 1
 651 20 623 0 592 -0 c 0
 570 0 551 5 536 12 c 1
 536 -164 397 -258 270 -258 c 0
 163 -258 64 -191 64 -50 c 0
EndSplineSet
Colour: ffda6b
EndChar

StartChar: _.sin.fina
Encoding: 65549 -1 13
GlifName: _.sin.fina
Width: 1020
VWidth: 1304
GlyphClass: 1
UnlinkRmOvrlpSave: 1
Flags: HMW
LayerCount: 2
Fore
SplineSet
64 -50 m 0
 64 -5 74 48 98 109 c 1
 129 100 l 1
 115 61 109 26 109 -4 c 0
 109 -110 186 -158 272 -158 c 0
 358 -158 453 -109 484 -21 c 1
 480 47 447 103 422 150 c 1
 466 240 l 1
 478 218 488 198 498 177 c 1
 498 176 l 1
 503 166 506 158 510 149 c 0
 531 108 555 100 605 100 c 0
 651 101 664 124 674 166 c 1
 685 220 l 1
 726 209 l 1
 715 148 l 2
 715 145 714 143 714 140 c 0
 714 117 731 100 785 100 c 0
 810 101 833 108 849 120 c 1
 845 144 844 168 844 192 c 0
 844 201 844 211 844 220 c 1
 888 260 l 1
 888 220 l 2
 888 130 913 100 1020 100 c 1
 1020 -0 l 1
 944 0 900 22 875 54 c 1
 850 22 818 0 771 -0 c 0
 725 0 690 19 673 50 c 1
 651 20 623 0 592 -0 c 0
 570 0 551 5 536 12 c 1
 536 -164 397 -258 270 -258 c 0
 163 -258 64 -191 64 -50 c 0
EndSplineSet
Colour: ffda6b
EndChar

StartChar: _.sin.medi
Encoding: 65550 -1 14
GlifName: _.sin.medi
Width: 681
VWidth: 1304
GlyphClass: 1
UnlinkRmOvrlpSave: 1
Flags: HMW
LayerCount: 2
Fore
SplineSet
-50 49 m 0
 -50 76 -27 100 -1 100 c 0
 3 100 6 100 10 100 c 0
 64 100 142 101 154 167 c 1
 167 220 l 1
 207 209 l 1
 197 156 l 2
 196 151 196 146 196 141 c 0
 196 117 211 100 266 100 c 0
 312 101 325 124 335 166 c 1
 346 220 l 1
 387 209 l 1
 376 148 l 2
 376 145 375 143 375 140 c 0
 375 117 392 100 446 100 c 0
 471 101 494 108 510 120 c 1
 506 144 505 168 505 192 c 0
 505 201 505 211 505 220 c 1
 550 260 l 1
 550 220 l 2
 550 130 574 100 681 100 c 1
 681 -0 l 1
 605 0 561 22 536 54 c 1
 511 22 480 0 433 -0 c 0
 387 0 351 19 334 50 c 1
 312 20 284 0 253 -0 c 0
 207 0 171 19 154 50 c 1
 124 17 82 0 19 -0 c 2
 -1 -0 l 2
 -25 0 -50 24 -50 49 c 0
EndSplineSet
Colour: ffda6b
EndChar

StartChar: _.sin.init
Encoding: 65551 -1 15
GlifName: _.sin.init
Width: 623
VWidth: 1304
GlyphClass: 1
UnlinkRmOvrlpSave: 1
Flags: HMW
LayerCount: 2
Fore
SplineSet
-50 49 m 0
 -50 76 -27 100 -1 100 c 0
 3 100 6 100 10 100 c 0
 64 100 142 101 154 167 c 1
 167 220 l 1
 207 209 l 1
 197 156 l 2
 196 151 196 146 196 141 c 0
 196 117 211 100 266 100 c 0
 312 101 325 124 334 165 c 2
 346 220 l 1
 387 209 l 1
 380 170 l 1
 376 148 l 2
 376 145 375 143 375 140 c 0
 375 117 392 100 446 100 c 0
 467 101 485 104 499 109 c 1
 474 228 l 1
 541 303 l 1
 554 236 l 2
 557 221 559 207 559 191 c 0
 559 183 559 175 558 167 c 0
 557 87 498 0 433 -0 c 0
 387 0 351 19 334 50 c 1
 312 20 284 0 253 -0 c 0
 207 0 171 19 154 50 c 1
 124 17 82 0 19 -0 c 2
 -1 -0 l 2
 -25 0 -50 24 -50 49 c 0
EndSplineSet
Colour: ffda6b
EndChar

StartChar: _.sad.isol
Encoding: 65552 -1 16
GlifName: _.sad.isol
Width: 1115
VWidth: 1304
GlyphClass: 1
UnlinkRmOvrlpSave: 1
Flags: HMW
LayerCount: 2
Fore
SplineSet
893 358 m 0
 982 358 1051 275 1051 194 c 0
 1050 32 850 0 747 -0 c 2
 631 -0 l 2
 598 0 564 6 537 20 c 1
 537 13 l 2
 538 -164 399 -258 271 -258 c 0
 163 -258 64 -191 64 -50 c 0
 64 -5 74 48 98 109 c 1
 129 100 l 1
 116 61 109 27 109 -3 c 0
 109 -110 187 -158 273 -158 c 0
 359 -158 455 -109 486 -21 c 1
 482 47 448 103 423 150 c 1
 467 240 l 1
 480 216 493 193 503 167 c 1
 523 125 540 109 572 103 c 1
 661 194 774 358 893 358 c 0
991 144 m 1
 982 206 933 258 873 258 c 0
 783 258 678 161 618 100 c 1
 747 100 l 2
 845 100 932 114 991 144 c 1
EndSplineSet
Colour: ffda6b
EndChar

StartChar: _.sad.fina
Encoding: 65553 -1 17
GlifName: _.sad.fina
Width: 1172
VWidth: 1304
GlyphClass: 1
UnlinkRmOvrlpSave: 1
Flags: HMW
LayerCount: 2
Fore
SplineSet
893 358 m 0
 982 358 1051 275 1051 194 c 0
 1051 162 1044 136 1030 114 c 1
 1056 99 1089 100 1122 100 c 2
 1172 100 l 1
 1172 -0 l 1
 1121 -0 l 2
 1063 0 1004 19 979 60 c 1
 911 12 811 0 747 -0 c 2
 631 -0 l 2
 598 0 564 6 537 20 c 1
 537 13 l 2
 538 -164 399 -258 271 -258 c 0
 163 -258 64 -191 64 -50 c 0
 64 -5 74 48 98 109 c 1
 129 100 l 1
 116 61 109 27 109 -3 c 0
 109 -110 187 -158 273 -158 c 0
 359 -158 455 -109 486 -21 c 1
 482 47 448 103 423 150 c 1
 467 240 l 1
 480 216 493 193 503 167 c 1
 523 125 540 109 572 103 c 1
 661 194 774 358 893 358 c 0
991 144 m 1
 982 206 933 258 873 258 c 0
 783 258 678 161 618 100 c 1
 747 100 l 2
 845 100 932 114 991 144 c 1
EndSplineSet
Colour: ffda6b
EndChar

StartChar: _.sad.medi
Encoding: 65554 -1 18
GlifName: _.sad.medi
Width: 861
VWidth: 1304
GlyphClass: 1
UnlinkRmOvrlpSave: 1
Flags: HMW
LayerCount: 2
Fore
SplineSet
581 358 m 0
 670 358 739 275 739 194 c 0
 739 162 732 136 718 114 c 1
 744 99 778 100 811 100 c 2
 861 100 l 1
 861 -0 l 1
 809 -0 l 2
 751 0 693 19 668 60 c 1
 600 12 499 0 435 -0 c 2
 319 -0 l 2
 261 0 204 20 178 59 c 1
 155 22 111 0 30 -0 c 2
 -1 -0 l 2
 -26 0 -50 24 -50 50 c 0
 -50 75 -27 100 -1 100 c 2
 50 100 l 2
 123 100 151 120 156 152 c 2
 167 220 l 1
 216 240 l 1
 202 138 l 1
 217 117 238 107 261 103 c 1
 349 196 462 358 581 358 c 0
680 144 m 1
 671 206 621 258 561 258 c 0
 471 258 367 161 307 100 c 1
 435 100 l 2
 533 100 621 114 680 144 c 1
EndSplineSet
Colour: ffda6b
EndChar

StartChar: _.sad.init
Encoding: 65555 -1 19
GlifName: _.sad.init
Width: 803
VWidth: 1304
GlyphClass: 1
UnlinkRmOvrlpSave: 1
Flags: HMW
LayerCount: 2
Fore
SplineSet
581 358 m 0
 670 358 739 275 739 196 c 2
 739 194 l 1
 738 32 538 0 435 -0 c 2
 319 -0 l 2
 261 0 204 20 178 59 c 1
 155 22 111 0 30 -0 c 2
 -1 -0 l 2
 -26 0 -50 24 -50 50 c 0
 -50 75 -27 100 -1 100 c 2
 50 100 l 2
 123 100 151 120 156 152 c 2
 167 220 l 1
 216 240 l 1
 202 138 l 1
 217 117 238 107 261 103 c 1
 349 196 462 358 581 358 c 0
680 145 m 1
 670 207 621 258 561 258 c 0
 471 258 367 161 307 100 c 1
 435 100 l 2
 535 100 621 115 680 145 c 1
EndSplineSet
Colour: ffda6b
EndChar

StartChar: _.ta.isol
Encoding: 65556 -1 20
GlifName: _.ta.isol
Width: 783
VWidth: 1304
GlyphClass: 1
UnlinkRmOvrlpSave: 1
Flags: HMW
LayerCount: 2
Fore
SplineSet
561 358 m 0
 650 358 719 275 719 194 c 0
 719 162 715 120 692 95 c 0
 627 25 504 0 391 -0 c 2
 147 -0 l 2
 104 0 64 65 64 90 c 0
 64 96 66 100 71 100 c 2
 237 100 l 1
 243 107 250 113 256 120 c 0
 268 139 278 171 278 211 c 0
 278 276 257 487 236 618 c 1
 295 700 l 1
 303 697 l 1
 328 597 337 286 338 213 c 1
 406 288 482 358 561 358 c 0
664 156 m 1
 649 213 597 258 541 258 c 0
 457 258 349 161 287 100 c 1
 395 100 l 2
 491 100 595 122 664 156 c 1
EndSplineSet
Colour: ffda6b
EndChar

StartChar: _.ta.fina
Encoding: 65557 -1 21
GlifName: _.ta.fina
Width: 841
VWidth: 1304
GlyphClass: 1
UnlinkRmOvrlpSave: 1
Flags: HMW
LayerCount: 2
Fore
SplineSet
561 358 m 0
 650 358 719 275 719 196 c 2
 719 194 l 2
 719 162 712 136 698 114 c 1
 724 99 757 100 790 100 c 2
 841 100 l 1
 841 -0 l 1
 789 -0 l 2
 731 0 672 19 647 60 c 1
 579 12 479 0 415 -0 c 2
 147 -0 l 2
 104 0 64 65 64 90 c 0
 64 96 66 100 71 100 c 2
 237 100 l 1
 243 107 250 113 257 120 c 0
 267 137 277 163 277 210 c 0
 277 360 260 550 256 618 c 1
 315 700 l 1
 322 697 l 1
 325 618 342 446 342 291 c 0
 342 281 342 271 342 261 c 0
 342 243 340 228 339 213 c 1
 407 288 482 358 561 358 c 0
660 145 m 1
 650 207 601 258 541 258 c 0
 451 258 347 161 287 100 c 1
 415 100 l 2
 515 100 601 115 660 145 c 1
EndSplineSet
Colour: ffda6b
EndChar

StartChar: _.ta.medi
Encoding: 65558 -1 22
GlifName: _.ta.medi
Width: 679
VWidth: 1304
GlyphClass: 1
UnlinkRmOvrlpSave: 1
Flags: HMW
LayerCount: 2
Fore
SplineSet
399 358 m 0
 488 358 557 275 557 196 c 2
 557 194 l 2
 557 162 550 136 536 114 c 1
 562 99 595 100 628 100 c 2
 679 100 l 1
 679 -0 l 1
 627 -0 l 2
 569 0 511 19 486 60 c 1
 418 12 317 0 253 -0 c 2
 -2 -0 l 1
 -26 1 -50 23 -50 48 c 0
 -50 74 -28 99 -2 100 c 1
 76 100 l 1
 82 107 88 113 95 120 c 0
 105 137 115 163 115 210 c 0
 115 360 98 550 94 618 c 1
 153 700 l 1
 161 697 l 1
 164 618 180 446 180 291 c 0
 180 281 180 271 180 261 c 0
 180 243 179 228 178 213 c 1
 246 288 320 358 399 358 c 0
498 145 m 1
 488 207 439 258 379 258 c 0
 289 258 185 161 125 100 c 1
 253 100 l 2
 353 100 439 115 498 145 c 1
EndSplineSet
Colour: ffda6b
EndChar

StartChar: _.ta.init
Encoding: 65559 -1 23
GlifName: _.ta.init
Width: 621
VWidth: 1304
GlyphClass: 1
UnlinkRmOvrlpSave: 1
Flags: HMW
LayerCount: 2
Fore
SplineSet
399 358 m 0
 488 358 557 275 557 196 c 2
 557 194 l 1
 556 32 356 0 253 -0 c 2
 -2 -0 l 1
 -26 1 -50 23 -50 48 c 0
 -50 74 -28 99 -2 100 c 1
 76 100 l 1
 82 107 88 113 95 120 c 0
 105 137 115 163 115 210 c 0
 115 360 98 550 94 618 c 1
 153 700 l 1
 161 697 l 1
 164 618 180 446 180 291 c 0
 180 281 180 271 180 261 c 0
 180 243 179 228 178 213 c 1
 246 288 320 358 399 358 c 0
498 145 m 1
 488 207 439 258 379 258 c 0
 289 258 185 161 125 100 c 1
 253 100 l 2
 353 100 439 115 498 145 c 1
EndSplineSet
Colour: ffda6b
EndChar

StartChar: _.ein.isol
Encoding: 65560 -1 24
GlifName: _.ein.isol
Width: 655
VWidth: 1304
GlyphClass: 1
UnlinkRmOvrlpSave: 1
Flags: HMW
LayerCount: 2
Fore
SplineSet
64 -110 m 0
 64 -1 124 120 248 198 c 1
 202 230 164 302 164 376 c 0
 164 394 166 411 171 428 c 0
 171 430 172 432 172 434 c 0
 181 452 190 474 203 487 c 0
 230 517 274 536 325 536 c 0
 387 536 452 509 492 457 c 1
 485 434 l 1
 457 440 412 447 367 447 c 0
 313 447 258 438 226 410 c 1
 235 346 267 274 332 237 c 1
 397 259 480 273 554 284 c 1
 534 207 l 1
 427 177 362 159 294 127 c 0
 178 69 106 -25 106 -104 c 0
 106 -184 179 -250 355 -250 c 0
 357 -250 358 -250 360 -250 c 0
 422 -250 495 -242 584 -222 c 1
 591 -249 l 1
 511 -317 412 -350 320 -350 c 0
 319 -350 318 -350 317 -350 c 0
 150 -350 64 -239 64 -110 c 0
EndSplineSet
Colour: ffda6b
EndChar

StartChar: _.ein.fina
Encoding: 65561 -1 25
GlifName: _.ein.fina
Width: 608
VWidth: 1304
GlyphClass: 1
UnlinkRmOvrlpSave: 1
Flags: HMW
LayerCount: 2
Fore
SplineSet
473 331 m 0
 473 258 416 199 346 152 c 1
 383 121 427 100 525 100 c 2
 608 100 l 1
 608 -0 l 1
 529 -0 l 2
 392 0 337 56 278 118 c 1
 171 60 105 -28 105 -104 c 0
 105 -184 179 -250 355 -250 c 0
 357 -250 358 -250 360 -250 c 0
 422 -250 496 -242 585 -222 c 1
 591 -249 l 1
 511 -317 412 -350 320 -350 c 0
 319 -350 318 -350 317 -350 c 0
 150 -350 64 -239 64 -110 c 0
 64 -10 115 100 220 178 c 1
 174 230 132 276 74 280 c 1
 87 372 l 1
 140 415 229 440 308 440 c 0
 397 440 473 408 473 331 c 0
173 321 m 1
 214 294 245 250 284 209 c 1
 359 242 408 283 410 299 c 0
 411 309 407 316 397 321 c 0
 372 337 341 344 306 344 c 0
 263 344 216 334 173 321 c 1
EndSplineSet
Colour: ffda6b
EndChar

StartChar: _.ein.medi
Encoding: 65562 -1 26
GlifName: _.ein.medi
Width: 514
VWidth: 1304
GlyphClass: 1
UnlinkRmOvrlpSave: 1
Flags: HMW
LayerCount: 2
Fore
SplineSet
452 265 m 0
 452 204 412 155 361 114 c 1
 394 104 437 100 486 100 c 2
 514 100 l 1
 514 -0 l 1
 478 -0 l 2
 384 0 320 24 271 56 c 1
 201 20 123 0 61 -0 c 2
 0 -0 l 2
 -25 0 -50 24 -50 50 c 0
 -50 75 -26 100 -1 100 c 2
 62 100 l 2
 110 100 155 108 196 119 c 1
 148 166 110 210 52 215 c 1
 66 305 l 1
 119 349 208 375 287 375 c 0
 376 375 452 342 452 265 c 0
148 253 m 1
 186 226 218 182 275 149 c 1
 343 181 386 218 388 234 c 0
 389 243 386 250 376 256 c 0
 352 272 320 278 286 278 c 0
 242 278 192 267 148 253 c 1
EndSplineSet
Colour: ffda6b
EndChar

StartChar: _.ein.init
Encoding: 65563 -1 27
GlifName: _.ein.init
Width: 525
VWidth: 1304
GlyphClass: 1
UnlinkRmOvrlpSave: 1
Flags: HMW
LayerCount: 2
Fore
SplineSet
-50 50 m 0
 -50 75 -26 100 -1 100 c 2
 41 100 l 2
 77 100 109 102 140 107 c 1
 101 143 71 204 71 270 c 0
 71 288 73 307 78 325 c 0
 78 332 82 341 85 346 c 0
 110 397 158 432 231 432 c 0
 293 432 358 404 399 353 c 1
 391 330 l 1
 362 336 316 343 270 343 c 0
 217 343 163 334 133 306 c 1
 140 240 176 166 245 130 c 1
 319 150 383 175 461 180 c 1
 429 106 l 1
 301 80 236 0 41 -0 c 2
 -1 -0 l 2
 -26 0 -50 24 -50 50 c 0
EndSplineSet
Colour: ffda6b
EndChar

StartChar: _.feh.isol
Encoding: 65564 -1 28
GlifName: _.feh.isol
Width: 819
VWidth: 1304
GlyphClass: 1
UnlinkRmOvrlpSave: 1
Flags: HMW
LayerCount: 2
Fore
SplineSet
613 500 m 0
 706 500 755 356 755 221 c 0
 755 204 754 187 752 172 c 0
 747 136 739 75 709 53 c 0
 675 28 525 -10 380 -11 c 0
 221 -11 64 9 64 175 c 0
 64 212 72 256 89 308 c 1
 119 298 l 1
 111 271 108 247 108 226 c 0
 108 103 237 90 380 90 c 0
 506 91 637 116 684 138 c 1
 686 155 688 172 688 189 c 1
 660 182 627 180 596 180 c 0
 520 180 477 224 477 300 c 0
 477 305 478 311 478 316 c 0
 477 373 515 500 613 500 c 0
528 323 m 0
 528 297 561 279 605 279 c 0
 629 279 654 283 677 290 c 1
 662 352 635 400 603 400 c 0
 575 400 546 374 530 336 c 0
 528 332 528 327 528 323 c 0
EndSplineSet
Colour: ffda6b
EndChar

StartChar: _.feh.fina
Encoding: 65565 -1 29
GlifName: _.feh.fina
Width: 928
VWidth: 1304
GlyphClass: 1
UnlinkRmOvrlpSave: 1
Flags: HMW
LayerCount: 2
Fore
SplineSet
731 402 m 0
 803 402 839 283 839 240 c 0
 840 235 840 230 840 225 c 0
 840 184 822 143 789 108 c 1
 815 103 845 100 881 100 c 2
 928 100 l 1
 928 -0 l 1
 878 -0 l 2
 808 0 745 15 697 45 c 1
 649 20 513 -10 380 -11 c 0
 221 -11 64 9 64 175 c 0
 64 212 72 256 89 308 c 1
 119 298 l 1
 111 271 108 247 108 226 c 0
 108 103 237 90 380 90 c 0
 470 90 562 103 625 118 c 1
 610 146 601 179 601 216 c 0
 601 294 661 402 731 402 c 0
639 218 m 1
 643 197 660 166 702 140 c 1
 751 156 789 179 805 210 c 1
 795 249 752 302 727 302 c 0
 694 302 655 265 639 218 c 1
EndSplineSet
Colour: ffda6b
EndChar

StartChar: _.feh.medi
Encoding: 65566 -1 30
GlifName: _.feh.medi
Width: 394
VWidth: 1304
GlyphClass: 1
UnlinkRmOvrlpSave: 1
Flags: HMW
LayerCount: 2
Fore
SplineSet
197 402 m 0
 269 402 306 283 306 240 c 0
 307 234 307 229 307 223 c 0
 307 184 292 144 264 107 c 1
 289 102 316 100 348 100 c 2
 394 100 l 1
 394 -0 l 1
 344 -0 l 2
 282 0 226 13 180 36 c 1
 139 14 89 0 31 -0 c 2
 -1 -0 l 2
 -26 0 -50 24 -50 50 c 0
 -50 76 -26 100 -1 100 c 2
 31 100 l 2
 54 100 78 102 99 107 c 1
 79 137 68 174 68 217 c 0
 68 295 128 402 197 402 c 0
105 218 m 1
 109 196 129 160 181 133 c 1
 224 153 256 181 271 209 c 1
 261 249 219 302 194 302 c 0
 161 302 121 265 105 218 c 1
EndSplineSet
Colour: ffda6b
EndChar

StartChar: _.feh.init
Encoding: 65567 -1 31
GlifName: _.feh.init
Width: 363
VWidth: 1304
GlyphClass: 1
UnlinkRmOvrlpSave: 1
Flags: HMW
LayerCount: 2
Fore
SplineSet
299 217 m 0
 299 98 265 4 146 -0 c 1
 -2 -0 l 1
 -27 1 -50 24 -50 50 c 0
 -50 75 -27 100 -2 100 c 2
 137 100 l 2
 178 100 205 110 226 122 c 1
 230 144 232 166 232 189 c 1
 204 182 171 180 140 180 c 0
 64 180 21 224 21 300 c 0
 21 305 21 311 21 316 c 0
 20 373 59 500 157 500 c 0
 251 500 299 353 299 217 c 0
72 323 m 0
 72 297 105 279 149 279 c 0
 173 279 198 283 221 290 c 1
 206 352 179 400 147 400 c 0
 119 400 90 374 74 336 c 0
 72 332 72 327 72 323 c 0
EndSplineSet
Colour: ffda6b
EndChar

StartChar: _.qaf.isol
Encoding: 65568 -1 32
GlifName: _.qaf.isol
Width: 627
VWidth: 1304
GlyphClass: 1
UnlinkRmOvrlpSave: 1
Flags: HMW
LayerCount: 2
Fore
SplineSet
420 320 m 0
 514 320 563 173 563 38 c 0
 563 32 562 27 562 20 c 0
 558 -165 414 -260 281 -260 c 0
 164 -260 64 -192 64 -54 c 0
 64 -2 78 60 111 133 c 1
 140 119 l 1
 119 68 109 25 109 -11 c 0
 109 -119 194 -160 286 -160 c 0
 367 -160 454 -130 495 -84 c 1
 497 -69 499 -54 499 -38 c 0
 499 -22 498 -6 497 11 c 1
 469 2 434 0 403 -0 c 0
 327 0 284 45 284 121 c 0
 284 126 285 131 285 136 c 0
 284 190 318 320 420 320 c 0
334 143 m 0
 334 119 363 100 404 100 c 0
 407 100 409 99 412 99 c 0
 436 99 461 104 484 111 c 1
 469 173 443 220 411 220 c 0
 383 220 354 194 337 155 c 0
 335 151 334 147 334 143 c 0
EndSplineSet
Colour: ffda6b
EndChar

StartChar: _.qaf.fina
Encoding: 65569 -1 33
GlifName: _.qaf.fina
Width: 637
VWidth: 1304
GlyphClass: 1
UnlinkRmOvrlpSave: 1
Flags: HMW
LayerCount: 2
Fore
SplineSet
64 -54 m 0
 64 -2 78 60 111 133 c 1
 140 119 l 1
 119 68 109 25 109 -11 c 0
 109 -119 194 -160 286 -160 c 0
 367 -160 454 -130 495 -84 c 1
 497 -69 498 -54 498 -39 c 0
 498 -26 498 -13 497 -0 c 1
 397 -0 l 1
 325 2 284 45 284 120 c 0
 284 125 285 130 285 136 c 0
 283 183 317 320 420 320 c 0
 500 320 545 214 559 100 c 1
 637 100 l 1
 637 -0 l 1
 562 -0 l 1
 548 -172 409 -260 281 -260 c 0
 164 -260 64 -192 64 -54 c 0
335 143 m 0
 335 119 363 101 402 100 c 1
 487 100 l 1
 472 168 444 220 411 220 c 0
 383 220 354 194 338 156 c 0
 336 152 335 147 335 143 c 0
EndSplineSet
Colour: ffda6b
EndChar

StartChar: _.kaf.isol.fa
Encoding: 65570 -1 34
GlifName: _.kaf.isol.fa
Width: 887
VWidth: 1304
GlyphClass: 1
UnlinkRmOvrlpSave: 1
Flags: HMW
LayerCount: 2
Fore
SplineSet
64 176 m 0
 64 211 71 254 89 308 c 1
 120 298 l 1
 112 271 108 247 108 227 c 0
 108 186 123 157 147 136 c 0
 185 103 266 91 351 91 c 0
 490 91 641 123 642 152 c 1
 612 239 528 316 407 405 c 0
 398 412 393 425 393 442 c 0
 393 489 425 561 467 576 c 2
 823 700 l 1
 796 598 l 1
 471 481 l 1
 599 374 700 294 700 172 c 0
 700 129 690 99 669 71 c 0
 663 61 654 57 647 50 c 1
 647 52 l 1
 573 12 458 -11 351 -11 c 0
 240 -11 136 14 96 69 c 0
 76 96 64 130 64 176 c 0
EndSplineSet
Colour: ffda6b
EndChar

StartChar: _.kaf.isol.ar
Encoding: 65571 -1 35
GlifName: _.kaf.isol.ar
Width: 753
VWidth: 1304
GlyphClass: 1
UnlinkRmOvrlpSave: 1
Flags: HMW
LayerCount: 2
Fore
SplineSet
64 71 m 0
 64 100 70 136 83 138 c 1
 131 96 221 90 318 90 c 0
 448 91 585 117 627 140 c 1
 607 618 l 1
 667 700 l 1
 675 697 l 1
 677 621 687 328 689 149 c 0
 689 107 674 74 646 53 c 0
 612 28 464 -10 318 -11 c 0
 223 -11 129 -4 69 37 c 0
 66 40 64 54 64 71 c 0
EndSplineSet
Colour: ffda6b
EndChar

StartChar: _.kaf.fina.fa
Encoding: 65572 -1 36
GlifName: _.kaf.fina.fa
Width: 908
VWidth: 1304
GlyphClass: 1
UnlinkRmOvrlpSave: 1
Flags: HMW
LayerCount: 2
Fore
SplineSet
64 176 m 0
 64 211 71 254 89 308 c 1
 120 298 l 1
 112 271 108 247 108 227 c 0
 108 186 123 157 147 136 c 0
 185 103 266 91 351 91 c 0
 490 91 641 123 642 152 c 1
 612 239 528 316 407 405 c 0
 398 412 393 425 393 442 c 0
 393 489 425 561 467 576 c 2
 823 700 l 1
 796 598 l 1
 471 481 l 1
 537 426 597 376 639 326 c 2
 757 182 l 2
 821 104 843 100 908 100 c 1
 908 -0 l 1
 837 0 786 11 713 96 c 1
 695 119 l 1
 695 117 l 1
 688 99 670 64 650 54 c 0
 649 53 648 51 647 50 c 1
 647 52 l 1
 573 12 458 -11 351 -11 c 0
 240 -11 136 14 96 69 c 0
 76 96 64 130 64 176 c 0
EndSplineSet
Colour: ffda6b
EndChar

StartChar: _.kaf.fina.ar
Encoding: 65573 -1 37
GlifName: _.kaf.fina.ar
Width: 825
VWidth: 1304
GlyphClass: 1
UnlinkRmOvrlpSave: 1
Flags: HMW
LayerCount: 2
Fore
SplineSet
64 71 m 0
 64 100 70 136 83 138 c 1
 131 96 221 90 318 90 c 0
 448 91 585 117 627 140 c 1
 607 618 l 1
 667 700 l 1
 675 697 l 1
 677 624 687 353 689 173 c 1
 714 109 773 100 825 100 c 1
 825 -0 l 1
 741 0 689 27 662 68 c 1
 657 63 652 58 646 53 c 0
 612 28 464 -10 318 -11 c 0
 223 -11 129 -4 69 37 c 0
 66 40 64 54 64 71 c 0
EndSplineSet
Colour: ffda6b
EndChar

StartChar: _.kaf.medi
Encoding: 65574 -1 38
GlifName: _.kaf.medi
Width: 509
VWidth: 1304
GlyphClass: 1
UnlinkRmOvrlpSave: 1
Flags: HMW
LayerCount: 2
Fore
SplineSet
-50 50 m 0
 -49 75 -25 99 -2 100 c 1
 126 100 l 2
 181 100 221 115 249 132 c 1
 228 228 138 309 8 405 c 0
 -1 412 -6 425 -6 442 c 0
 -6 489 26 561 68 576 c 2
 424 700 l 1
 397 598 l 1
 72 481 l 1
 138 426 198 376 239 326 c 2
 359 182 l 2
 423 104 444 100 509 100 c 1
 509 -0 l 1
 438 0 387 11 314 96 c 1
 296 119 l 1
 278 45 218 0 127 -0 c 2
 0 -0 l 1
 -25 1 -50 24 -50 50 c 0
EndSplineSet
Colour: ffda6b
EndChar

StartChar: _.kaf.init
Encoding: 65575 -1 39
GlifName: _.kaf.init
Width: 488
VWidth: 1304
GlyphClass: 1
UnlinkRmOvrlpSave: 1
Flags: HMW
LayerCount: 2
Fore
SplineSet
-50 50 m 0
 -49 75 -25 99 -2 100 c 1
 126 100 l 2
 181 100 221 115 249 132 c 1
 228 228 138 309 8 405 c 0
 -1 412 -6 425 -6 442 c 0
 -6 489 26 561 68 576 c 2
 424 700 l 1
 397 598 l 1
 72 481 l 1
 196 376 296 298 301 181 c 1
 301 178 l 2
 301 174 301 171 301 167 c 0
 301 66 236 0 127 -0 c 2
 0 -0 l 1
 -25 1 -50 24 -50 50 c 0
EndSplineSet
Colour: ffda6b
EndChar

StartChar: _.kaf_hamze.isol.ar
Encoding: 65576 -1 40
GlifName: _.kaf_hamze.isol.ar
Width: 350
VWidth: 1304
GlyphClass: 1
UnlinkRmOvrlpSave: 1
Flags: HMW
LayerCount: 2
Fore
SplineSet
64 22 m 1
 69 36 l 1
 72 36 75 35 78 35 c 0
 153 35 245 49 245 87 c 0
 245 98 220 101 191 101 c 0
 167 101 141 100 124 100 c 1
 124 103 124 105 124 108 c 0
 124 171 162 274 257 274 c 1
 245 223 l 1
 209 223 166 188 161 150 c 1
 173 150 187 151 201 151 c 0
 242 151 286 144 286 98 c 0
 286 37 209 -1 138 -1 c 0
 106 -1 85 10 64 22 c 1
EndSplineSet
Colour: ffda6b
EndChar

StartChar: _.ghaf.isol
Encoding: 65577 -1 41
GlifName: _.ghaf.isol
Width: 887
VWidth: 0
GlyphClass: 1
UnlinkRmOvrlpSave: 1
Flags: HMW
LayerCount: 2
Fore
SplineSet
64 176 m 0
 64 211 71 254 89 308 c 1
 120 298 l 1
 112 271 108 247 108 227 c 0
 108 186 123 157 147 136 c 0
 185 103 266 91 351 91 c 0
 490 91 641 123 642 152 c 1
 612 239 528 316 407 405 c 0
 398 412 393 425 393 442 c 0
 393 489 425 561 467 576 c 2
 823 700 l 1
 796 598 l 1
 471 481 l 1
 599 374 700 294 700 172 c 0
 700 129 690 99 669 71 c 0
 663 61 654 57 647 50 c 1
 647 52 l 1
 573 12 458 -11 351 -11 c 0
 240 -11 136 14 96 69 c 0
 76 96 64 130 64 176 c 0
484 651 m 1
 503 705 l 1
 775 800 l 1
 757 747 l 1
 484 651 l 1
EndSplineSet
Colour: ffda6b
EndChar

StartChar: _.ghaf.fina
Encoding: 65578 -1 42
GlifName: _.ghaf.fina
Width: 908
VWidth: 0
GlyphClass: 1
Flags: HMW
LayerCount: 2
Fore
SplineSet
64 176 m 0
 64 211 71 254 89 308 c 1
 120 298 l 1
 112 271 108 247 108 227 c 0
 108 186 123 157 147 136 c 0
 185 103 266 91 351 91 c 0
 490 91 641 123 642 152 c 1
 612 239 528 316 407 405 c 0
 398 412 393 425 393 442 c 0
 393 489 425 561 467 576 c 2
 823 700 l 1
 796 598 l 1
 471 481 l 1
 537 426 597 376 639 326 c 2
 757 182 l 2
 821 104 843 100 908 100 c 1
 908 -0 l 1
 837 0 786 11 713 96 c 1
 695 119 l 1
 695 117 l 1
 688 99 670 64 650 54 c 0
 649 53 648 51 647 50 c 1
 647 52 l 1
 573 12 458 -11 351 -11 c 0
 240 -11 136 14 96 69 c 0
 76 96 64 130 64 176 c 0
484 651 m 1
 503 705 l 1
 775 800 l 1
 757 747 l 1
 484 651 l 1
EndSplineSet
Colour: ffda6b
EndChar

StartChar: _.lam.isol
Encoding: 65580 -1 44
GlifName: _.lam.isol
Width: 592
VWidth: 1304
GlyphClass: 1
UnlinkRmOvrlpSave: 1
Flags: HMW
LayerCount: 2
Fore
SplineSet
64 -55 m 0
 64 -5 77 54 106 123 c 1
 134 109 l 1
 117 63 110 24 110 -9 c 0
 110 -117 190 -158 276 -158 c 0
 350 -158 426 -129 461 -88 c 1
 466 -64 468 -34 468 3 c 0
 468 24 467 46 466 72 c 2
 444 618 l 1
 505 700 l 1
 512 697 l 1
 516 610 528 229 528 74 c 0
 528 55 526 36 525 20 c 0
 525 17 526 12 526 9 c 0
 526 -169 391 -261 267 -261 c 0
 162 -261 64 -194 64 -55 c 0
EndSplineSet
Colour: ffda6b
EndChar

StartChar: _.lam.fina
Encoding: 65581 -1 45
GlifName: _.lam.fina
Width: 695
VWidth: 1304
GlyphClass: 1
UnlinkRmOvrlpSave: 1
Flags: HMW
LayerCount: 2
Fore
SplineSet
64 -55 m 0
 64 -5 77 54 106 123 c 1
 134 109 l 1
 117 63 110 24 110 -9 c 0
 110 -117 190 -158 276 -158 c 0
 350 -158 426 -129 461 -88 c 1
 466 -64 468 -34 468 3 c 0
 468 24 467 46 466 72 c 2
 444 618 l 1
 505 700 l 1
 512 697 l 1
 514 623 525 341 527 161 c 1
 537 101 594 100 646 100 c 2
 695 100 l 1
 695 -0 l 1
 646 -0 l 2
 594 0 554 7 527 32 c 1
 527 28 525 24 525 20 c 0
 525 17 526 12 526 9 c 0
 526 -169 391 -261 267 -261 c 0
 162 -261 64 -194 64 -55 c 0
EndSplineSet
Colour: ffda6b
EndChar

StartChar: _.lam.medi
Encoding: 65582 -1 46
GlifName: _.lam.medi
Width: 339
VWidth: 1304
GlyphClass: 1
UnlinkRmOvrlpSave: 1
Flags: HMW
LayerCount: 2
Fore
SplineSet
-50 50 m 0
 -50 75 -27 100 -1 100 c 2
 60 100 l 2
 117 100 172 107 170 185 c 1
 147 618 l 1
 206 700 l 1
 213 697 l 1
 217 615 224 387 228 232 c 0
 229 231 229 230 229 230 c 1
 229 210 229 191 229 171 c 1
 233 101 285 100 339 100 c 1
 339 -0 l 1
 286 0 228 5 200 60 c 1
 170 5 112 0 58 -0 c 2
 -1 -0 l 2
 -26 0 -50 24 -50 50 c 0
EndSplineSet
Colour: ffda6b
EndChar

StartChar: _.lam.init
Encoding: 65583 -1 47
GlifName: _.lam.init
Width: 284
VWidth: 1304
GlyphClass: 1
UnlinkRmOvrlpSave: 1
Flags: HMW
LayerCount: 2
Fore
SplineSet
-50 50 m 0
 -50 76 -26 100 -1 100 c 2
 68 100 l 2
 100 100 142 108 162 125 c 1
 162 145 160 170 158 202 c 2
 121 617 l 1
 178 700 l 1
 186 697 l 1
 192 611 213 360 218 205 c 0
 219 196 220 189 220 180 c 0
 220 171 219 162 218 155 c 0
 216 80 196 54 178 39 c 1
 155 12 112 0 62 -0 c 2
 -1 -0 l 2
 -26 0 -50 24 -50 50 c 0
EndSplineSet
Colour: ffda6b
EndChar

StartChar: _.mim.isol
Encoding: 65584 -1 48
GlifName: _.mim.isol
Width: 533
VWidth: 1304
GlyphClass: 1
UnlinkRmOvrlpSave: 1
Flags: HMW
LayerCount: 2
Fore
SplineSet
64 27 m 0
 64 106 99 171 186 175 c 1
 215 284 l 2
 233 350 271 378 313 378 c 0
 386 378 469 293 469 183 c 0
 469 169 468 154 465 139 c 1
 465 138 l 1
 463 128 460 118 456 107 c 0
 442 59 434 44 402 44 c 0
 392 44 379 46 363 48 c 2
 213 71 l 2
 205 72 195 73 185 73 c 0
 151 73 115 62 115 22 c 0
 115 20 115 18 115 16 c 2
 152 -216 l 1
 96 -301 l 1
 87 -297 l 1
 66 -9 l 2
 65 3 64 15 64 27 c 0
225 174 m 1
 422 141 l 1
 411 200 344 279 293 279 c 0
 272 279 254 265 243 232 c 2
 225 174 l 1
EndSplineSet
Colour: ffda6b
EndChar

StartChar: _.mim.fina
Encoding: 65585 -1 49
GlifName: _.mim.fina
Width: 561
VWidth: 1304
GlyphClass: 1
UnlinkRmOvrlpSave: 1
Flags: HMW
LayerCount: 2
Fore
SplineSet
64 7 m 0
 64 130 126 209 287 258 c 1
 298 274 314 307 341 307 c 0
 346 307 352 305 356 300 c 0
 384 257 400 213 422 176 c 0
 448 132 460 100 561 100 c 1
 561 -0 l 1
 496 0 456 12 428 34 c 1
 399 -60 348 -101 302 -101 c 0
 252 -101 208 -52 208 32 c 0
 208 64 215 102 230 144 c 1
 177 121 135 83 112 34 c 1
 151 -216 l 1
 95 -301 l 1
 86 -297 l 1
 64 -4 l 2
 64 0 64 3 64 7 c 0
287 70 m 0
 287 25 302 0 325 0 c 0
 345 0 372 19 401 61 c 1
 365 104 348 152 315 204 c 1
 295 149 287 104 287 70 c 0
EndSplineSet
Colour: ffda6b
EndChar

StartChar: _.mim.medi
Encoding: 65586 -1 50
GlifName: _.mim.medi
Width: 588
VWidth: 1304
GlyphClass: 1
UnlinkRmOvrlpSave: 1
Flags: HMW
LayerCount: 2
Fore
SplineSet
-50 50 m 0
 -50 76 -26 100 -1 100 c 2
 36 100 l 2
 118 100 149 112 180 164 c 0
 194 189 208 214 222 240 c 0
 245 282 268 302 294 302 c 0
 328 302 364 267 405 205 c 0
 437 156 466 100 588 100 c 1
 588 -0 l 1
 520 0 473 16 439 42 c 1
 405 -18 364 -40 322 -40 c 0
 266 -40 207 -1 158 40 c 1
 133 13 97 0 32 -0 c 2
 -1 -0 l 2
 -26 0 -50 24 -50 50 c 0
215 120 m 1
 253 92 299 59 344 59 c 0
 363 59 380 65 398 79 c 1
 383 96 370 116 356 134 c 0
 339 159 310 201 281 201 c 0
 269 201 256 193 245 173 c 2
 215 120 l 1
EndSplineSet
Colour: ffda6b
EndChar

StartChar: _.mim.init
Encoding: 65587 -1 51
GlifName: _.mim.init
Width: 525
VWidth: 1304
GlyphClass: 1
UnlinkRmOvrlpSave: 1
Flags: HMW
LayerCount: 2
Fore
SplineSet
-50 50 m 0
 -50 76 -26 100 -1 100 c 0
 85 100 148 112 178 164 c 0
 195 191 210 218 226 246 c 0
 260 306 298 330 333 330 c 0
 403 330 461 234 461 143 c 0
 461 86 439 51 407 21 c 0
 389 4 369 -4 344 -4 c 0
 313 -4 276 8 227 33 c 1
 175 60 l 1
 143 13 91 0 0 -0 c 0
 -25 0 -50 24 -50 50 c 0
223 149 m 1
 244 137 320 97 378 97 c 0
 388 97 397 98 405 101 c 1
 388 166 335 227 293 227 c 0
 279 227 267 220 257 204 c 2
 223 149 l 1
EndSplineSet
Colour: ffda6b
EndChar

StartChar: _.nun.isol
Encoding: 65588 -1 52
GlifName: _.nun.isol
Width: 601
VWidth: 1305
GlyphClass: 1
UnlinkRmOvrlpSave: 1
Flags: HMW
LayerCount: 2
Fore
SplineSet
64 -8 m 0
 64 37 74 90 97 150 c 1
 129 140 l 1
 115 101 110 67 110 37 c 0
 110 -69 187 -117 273 -117 c 0
 359 -117 454 -69 485 18 c 1
 481 87 447 143 422 189 c 1
 467 280 l 1
 506 205 537 142 537 62 c 0
 537 59 537 56 537 53 c 0
 538 -123 399 -217 272 -217 c 0
 164 -217 64 -150 64 -8 c 0
EndSplineSet
Colour: ffda6b
EndChar

StartChar: _.nun.fina
Encoding: 65589 -1 53
GlifName: _.nun.fina
Width: 645
VWidth: 1413
GlyphClass: 1
UnlinkRmOvrlpSave: 1
Flags: HMW
LayerCount: 2
Fore
SplineSet
64 -49 m 0
 64 -4 74 49 97 109 c 1
 129 100 l 1
 115 61 110 26 110 -4 c 0
 110 -110 187 -158 273 -158 c 0
 359 -158 454 -109 485 -21 c 1
 481 47 447 103 422 150 c 1
 467 240 l 1
 477 223 485 204 494 188 c 1
 494 186 l 1
 498 180 500 173 504 166 c 0
 530 114 564 100 626 100 c 2
 645 100 l 1
 645 -0 l 1
 630 -0 l 2
 594 0 564 4 537 21 c 1
 537 13 l 2
 538 -164 398 -258 271 -258 c 0
 163 -258 64 -190 64 -49 c 0
EndSplineSet
Colour: ffda6b
EndChar

StartChar: _.vav.isol
Encoding: 65590 -1 54
GlifName: _.vav.isol
Width: 489
VWidth: 1304
GlyphClass: 1
UnlinkRmOvrlpSave: 1
Flags: HMW
LayerCount: 2
Fore
SplineSet
64 -196 m 1
 76 -164 l 1
 117 -181 147 -186 169 -186 c 0
 198 -186 213 -176 224 -171 c 0
 287 -145 350 -87 373 -21 c 0
 373 -20 373 -20 374 -19 c 0
 373 -5 370 7 369 21 c 1
 341 9 300 0 266 -0 c 0
 188 0 146 45 146 123 c 0
 146 127 146 131 146 136 c 0
 145 193 188 320 283 320 c 0
 377 320 419 188 425 59 c 1
 425 31 l 2
 425 28 425 24 425 21 c 0
 425 -131 330 -230 224 -257 c 0
 220 -258 216 -259 212 -259 c 0
 165 -259 79 -209 64 -196 c 1
355 112 m 1
 339 177 319 221 273 221 c 0
 230 221 202 184 191 136 c 1
 197 115 229 100 266 100 c 0
 269 100 271 99 274 99 c 0
 301 99 330 105 355 112 c 1
EndSplineSet
Colour: ffda6b
EndChar

StartChar: _.vav.fina
Encoding: 65591 -1 55
GlifName: _.vav.fina
Width: 505
VWidth: 1304
GlyphClass: 1
UnlinkRmOvrlpSave: 1
Flags: HMW
LayerCount: 2
Fore
SplineSet
64 -196 m 1
 76 -164 l 1
 117 -181 147 -186 169 -186 c 0
 198 -186 213 -176 224 -171 c 0
 287 -145 350 -87 373 -21 c 0
 373 -14 372 -7 371 -0 c 1
 266 -0 l 2
 188 0 146 45 146 123 c 0
 146 127 146 131 146 136 c 0
 145 193 188 320 283 320 c 0
 367 320 409 214 421 100 c 1
 505 100 l 1
 505 -0 l 1
 423 -0 l 1
 415 -140 326 -231 224 -257 c 0
 220 -258 216 -259 212 -259 c 0
 165 -259 79 -209 64 -196 c 1
357 100 m 1
 343 171 322 221 273 221 c 0
 230 221 202 184 191 136 c 1
 197 115 229 101 266 100 c 1
 357 100 l 1
EndSplineSet
Colour: ffda6b
EndChar

StartChar: _.dal.isol
Encoding: 65592 -1 56
GlifName: _.dal.isol
Width: 470
VWidth: 1304
GlyphClass: 1
UnlinkRmOvrlpSave: 1
Flags: HMW
LayerCount: 2
Fore
SplineSet
64 105 m 0
 64 119 65 134 66 149 c 1
 97 149 l 1
 98 117 113 81 184 80 c 0
 285 80 334 105 343 127 c 1
 333 200 280 279 168 349 c 1
 213 439 l 1
 379 322 406 226 406 130 c 0
 406 17 306 -20 185 -20 c 0
 85 -20 64 33 64 105 c 0
EndSplineSet
Colour: ffda6b
EndChar

StartChar: _.dal.fina
Encoding: 65593 -1 57
GlifName: _.dal.fina
Width: 534
VWidth: 1304
GlyphClass: 1
UnlinkRmOvrlpSave: 1
Flags: HMW
LayerCount: 2
Fore
SplineSet
64 105 m 0
 64 119 65 134 66 149 c 1
 97 149 l 1
 98 117 113 81 184 80 c 0
 284 80 332 103 342 125 c 1
 270 346 l 1
 322 438 l 1
 406 181 l 2
 423 129 444 100 518 100 c 2
 534 100 l 1
 534 -0 l 1
 518 -0 l 2
 452 0 411 20 384 52 c 1
 347 -1 271 -20 185 -20 c 0
 85 -20 64 33 64 105 c 0
EndSplineSet
Colour: ffda6b
EndChar

StartChar: _.ree.isol
Encoding: 65594 -1 58
GlifName: _.ree.isol
Width: 489
VWidth: 1304
GlyphClass: 1
UnlinkRmOvrlpSave: 1
Flags: HMW
LayerCount: 2
Fore
SplineSet
64 -196 m 1
 76 -164 l 1
 117 -181 147 -186 169 -186 c 0
 198 -186 213 -176 224 -171 c 0
 287 -145 350 -87 373 -21 c 1
 369 47 335 103 310 150 c 1
 355 240 l 1
 397 161 425 98 425 21 c 0
 425 -5 422 -32 415 -63 c 1
 387 -166 310 -235 224 -257 c 0
 220 -258 216 -259 212 -259 c 0
 165 -259 79 -209 64 -196 c 1
EndSplineSet
Colour: ffda6b
EndChar

StartChar: _.ree.fina
Encoding: 65595 -1 59
GlifName: _.ree.fina
Width: 523
VWidth: 1304
GlyphClass: 1
UnlinkRmOvrlpSave: 1
Flags: HMW
LayerCount: 2
Fore
SplineSet
64 -196 m 1
 76 -164 l 1
 117 -181 147 -186 169 -186 c 0
 198 -186 213 -176 224 -171 c 0
 287 -145 350 -87 373 -21 c 0
 373 -19 373 -18 373 -16 c 0
 373 17 351 62 315 116 c 1
 359 205 l 1
 365 194 372 183 377 173 c 0
 407 124 438 100 502 100 c 2
 523 100 l 1
 523 -0 l 1
 489 0 456 0 425 16 c 1
 424 -9 421 -35 415 -63 c 0
 387 -166 310 -235 224 -257 c 0
 220 -258 216 -259 212 -259 c 0
 165 -259 79 -209 64 -196 c 1
EndSplineSet
Colour: ffda6b
EndChar

StartChar: _.he8.isol
Encoding: 65596 -1 60
GlifName: _.he8.isol
Width: 403
VWidth: 1304
GlyphClass: 1
UnlinkRmOvrlpSave: 1
Flags: HMW
LayerCount: 2
Fore
SplineSet
174 -24 m 0
 113 -24 64 14 64 93 c 0
 64 146 86 218 142 309 c 1
 132 316 122 323 112 330 c 1
 156 418 l 1
 321 302 339 195 339 130 c 0
 339 66 300 -24 174 -24 c 0
119 135 m 0
 119 101 138 81 183 81 c 0
 231 81 271 92 289 112 c 1
 282 167 246 225 178 280 c 1
 140 220 119 170 119 135 c 0
EndSplineSet
Colour: ffda6b
EndChar

StartChar: _.he8.fina
Encoding: 65597 -1 61
GlifName: _.he8.fina
Width: 421
VWidth: 1304
GlyphClass: 1
UnlinkRmOvrlpSave: 1
Flags: HMW
LayerCount: 2
Fore
SplineSet
65 204 m 0
 74 269 154 325 227 369 c 1
 223 400 l 1
 264 480 l 1
 270 480 l 1
 307 182 l 2
 313 138 331 100 401 100 c 2
 421 100 l 1
 421 -0 l 1
 401 -0 l 2
 296 0 266 57 255 125 c 1
 230 110 197 101 165 101 c 0
 115 101 80 126 67 170 c 0
 65 181 63 192 65 204 c 0
111 215 m 1
 123 201 142 195 164 195 c 0
 189 195 218 203 245 213 c 1
 233 312 l 1
 178 286 134 252 111 215 c 1
EndSplineSet
Colour: ffda6b
EndChar

StartChar: _.he8.medi
Encoding: 65598 -1 62
GlifName: _.he8.medi
Width: 463
VWidth: 1304
GlyphClass: 1
UnlinkRmOvrlpSave: 1
Flags: HMW
LayerCount: 2
Fore
SplineSet
289 187 m 0
 289 87 191 30 110 10 c 1
 125 -34 174 -72 248 -90 c 1
 239 -72 234 -53 234 -34 c 0
 234 34 287 100 340 100 c 2
 463 100 l 1
 463 -0 l 1
 362 -0 l 2
 307 0 287 -21 287 -44 c 0
 287 -71 314 -101 349 -104 c 1
 339 -191 l 1
 205 -190 92 -116 69 2 c 1
 59 1 50 0 41 -0 c 2
 -1 -0 l 2
 -26 0 -50 24 -50 50 c 0
 -50 76 -26 100 -1 100 c 0
 24 100 49 100 72 101 c 1
 93 237 166 383 214 383 c 0
 225 383 236 375 243 357 c 0
 270 292 289 235 289 187 c 0
112 104 m 1
 167 111 215 128 247 162 c 1
 237 203 219 244 210 264 c 0
 203 282 204 280 193 268 c 0
 171 243 133 177 112 104 c 1
EndSplineSet
Colour: ffda6b
EndChar

StartChar: _.he8.init
Encoding: 65599 -1 63
GlifName: _.he8.init
Width: 509
VWidth: 1304
GlyphClass: 1
UnlinkRmOvrlpSave: 1
Flags: HMW
LayerCount: 2
Fore
SplineSet
-50 50 m 0
 -50 76 -26 100 -1 100 c 2
 61 100 l 2
 78 100 94 102 111 107 c 1
 85 126 71 157 71 197 c 0
 71 251 103 319 135 354 c 1
 143 459 l 1
 273 391 l 2
 403 323 445 239 445 168 c 0
 445 146 441 125 434 106 c 0
 412 46 384 22 347 22 c 0
 334 22 320 25 305 31 c 2
 212 65 l 1
 171 21 118 0 68 -0 c 2
 -1 -0 l 2
 -26 0 -50 24 -50 50 c 0
251 211 m 0
 251 255 229 307 189 307 c 0
 167 307 145 293 129 266 c 1
 127 257 125 249 125 241 c 0
 125 213 139 192 169 181 c 2
 220 162 l 1
 237 177 251 190 251 211 c 0
291 276 m 1
 291 225 279 183 265 146 c 1
 348 117 l 2
 358 114 368 111 377 111 c 0
 393 111 405 117 405 135 c 0
 405 137 404 139 404 141 c 0
 397 175 361 232 291 276 c 1
EndSplineSet
Colour: ffda6b
EndChar

StartChar: _.yeh.fina
Encoding: 65600 -1 64
GlifName: _.yeh.fina
Width: 639
VWidth: 1304
GlyphClass: 1
UnlinkRmOvrlpSave: 1
Flags: HMW
LayerCount: 2
Fore
SplineSet
64 -63 m 0
 64 5 87 88 134 183 c 1
 165 172 l 1
 127 90 110 26 110 -23 c 0
 110 -122 180 -160 295 -160 c 0
 368 -160 451 -141 493 -104 c 1
 499 -98 501 -90 501 -83 c 0
 501 -38 411 20 378 34 c 0
 370 37 367 45 367 52 c 0
 367 63 373 76 379 86 c 0
 393 112 405 126 421 126 c 0
 423 126 425 125 427 125 c 0
 479 111 569 100 639 100 c 1
 639 -0 l 1
 617 0 561 7 539 22 c 1
 565 -8 576 -39 576 -66 c 0
 576 -105 555 -138 528 -161 c 1
 469 -221 364 -262 282 -262 c 0
 141 -260 64 -188 64 -63 c 0
EndSplineSet
Colour: ffda6b
EndChar

StartChar: _.yeh.isol
Encoding: 65601 -1 65
GlifName: _.yeh.isol
Width: 711
VWidth: 1304
GlyphClass: 1
UnlinkRmOvrlpSave: 1
Flags: HMW
LayerCount: 2
Fore
SplineSet
64 -43 m 0
 64 19 82 94 126 183 c 1
 157 172 l 1
 123 98 108 39 108 -8 c 0
 108 -122 194 -161 288 -161 c 0
 380 -161 480 -123 514 -80 c 0
 518 -74 520 -69 520 -64 c 0
 520 -27 414 -19 376 1 c 0
 347 16 331 44 331 82 c 0
 331 111 341 146 362 187 c 1
 402 282 480 335 536 335 c 0
 584 335 629 294 647 207 c 1
 631 188 l 1
 601 220 570 235 538 236 c 0
 496 236 434 199 396 150 c 0
 390 141 387 132 387 125 c 0
 387 112 397 103 410 98 c 0
 509 72 594 37 594 -31 c 0
 594 -55 578 -99 550 -127 c 1
 478 -216 375 -260 283 -260 c 0
 165 -260 64 -188 64 -43 c 0
EndSplineSet
Colour: ffda6b
EndChar

StartChar: _.hamze.isol
Encoding: 65602 -1 66
GlifName: _.hamze.isol
Width: 427
VWidth: 1304
GlyphClass: 2
Flags: HMW
LayerCount: 2
Fore
SplineSet
231 271 m 0
 193 271 161 247 161 207 c 0
 161 175 183 140 240 140 c 0
 252 140 266 142 281 145 c 0
 308 155 335 165 363 175 c 1
 334 100 l 1
 64 -0 l 1
 86 68 l 1
 113 80 139 90 165 100 c 1
 123 125 104 168 104 210 c 0
 104 286 158 330 216 330 c 0
 255 330 296 312 327 276 c 1
 315 248 l 1
 283 263 255 271 231 271 c 0
EndSplineSet
Colour: ffda6b
EndChar

StartChar: _.keshide.medi
Encoding: 65603 -1 67
GlifName: _.keshide.medi
Width: 235
VWidth: 1304
GlyphClass: 2
Flags: HMW
LayerCount: 2
Fore
SplineSet
-12 100 m 2
 235 100 l 1
 235 0 l 1
 -12 0 l 2
 -24 0 -33 5 -40 15 c 0
 -47 25 -50 37 -50 50 c 0
 -50 63 -47 75 -40 85 c 0
 -33 95 -24 100 -12 100 c 2
EndSplineSet
Colour: ffda6b
EndChar

StartChar: _.dot.1u
Encoding: 65604 -1 68
GlifName: _.dot.1u
Width: 0
VWidth: 1304
GlyphClass: 2
Flags: HMW
LayerCount: 2
Fore
SplineSet
3 56 m 2
 -1 60 -1 65 3 69 c 2
 57 123 l 2
 61 127 65 127 69 123 c 2
 122 70 l 2
 126 66 126 60 122 56 c 2
 69 4 l 2
 65 0 60 0 56 4 c 2
 3 56 l 2
EndSplineSet
Colour: ffda6b
EndChar

StartChar: _.dot.2u
Encoding: 65605 -1 69
GlifName: _.dot.2u
Width: 0
VWidth: 1304
GlyphClass: 2
UnlinkRmOvrlpSave: 1
Flags: HMW
LayerCount: 2
Fore
SplineSet
2 54 m 2
 0 58 0 64 2 66 c 2
 54 118 l 2
 58 122 62 122 66 118 c 2
 120 64 l 1
 174 118 l 2
 178 122 182 122 186 118 c 2
 236 68 l 2
 240 64 240 59 236 55 c 2
 184 4 l 2
 182 0 176 0 172 4 c 2
 118 57 l 1
 66 4 l 2
 62 0 58 0 54 4 c 2
 2 54 l 2
EndSplineSet
Colour: ffda6b
EndChar

StartChar: _.dot.3u
Encoding: 65606 -1 70
GlifName: _.dot.3u
Width: 0
VWidth: 1304
GlyphClass: 2
UnlinkRmOvrlpSave: 1
Flags: HMW
LayerCount: 2
Fore
SplineSet
2 54 m 2
 0 58 0 64 2 66 c 2
 54 118 l 2
 58 122 62 122 66 118 c 2
 118 68 l 2
 122 64 122 59 118 55 c 2
 66 4 l 2
 62 0 58 0 54 4 c 2
 2 54 l 2
66 176 m 2
 62 178 62 185 66 187 c 2
 114 236 l 2
 118 240 122 240 126 236 c 2
 174 188 l 2
 178 184 178 180 174 176 c 2
 126 127 l 2
 122 125 116 125 114 127 c 2
 66 176 l 2
124 55 m 2
 120 59 120 64 124 68 c 2
 174 119 l 2
 178 123 184 123 188 119 c 2
 238 69 l 2
 242 65 242 59 238 55 c 2
 186 5 l 2
 182 1 178 1 174 5 c 2
 124 55 l 2
EndSplineSet
Colour: ffda6b
EndChar

StartChar: _.dot.1d
Encoding: 65607 -1 71
GlifName: _.dot.1d
Width: 0
VWidth: 1304
GlyphClass: 2
Flags: HMW
LayerCount: 2
Fore
SplineSet
3 -58 m 2
 57 -4 l 2
 61 0 67 0 69 -4 c 2
 122 -57 l 2
 126 -61 126 -66 122 -70 c 2
 69 -123 l 2
 65 -127 60 -127 56 -123 c 2
 3 -72 l 2
 -1 -68 -1 -62 3 -58 c 2
EndSplineSet
Colour: ffda6b
EndChar

StartChar: _.dot.2d
Encoding: 65608 -1 72
GlifName: _.dot.2d
Width: 0
VWidth: 1304
GlyphClass: 2
UnlinkRmOvrlpSave: 1
Flags: HMW
LayerCount: 2
Fore
SplineSet
2 -56 m 2
 54 -4 l 2
 58 0 62 0 66 -4 c 2
 118 -54 l 2
 122 -58 122 -65 118 -67 c 2
 66 -118 l 2
 62 -122 58 -122 54 -118 c 2
 2 -68 l 2
 0 -64 0 -58 2 -56 c 2
124 -54 m 2
 174 -3 l 2
 178 1 184 1 188 -3 c 2
 238 -53 l 2
 242 -57 242 -63 238 -67 c 2
 186 -117 l 2
 182 -121 178 -121 174 -117 c 2
 124 -67 l 2
 120 -63 120 -58 124 -54 c 2
EndSplineSet
Colour: ffda6b
EndChar

StartChar: _.dot.3d
Encoding: 65609 -1 73
GlifName: _.dot.3d
Width: 0
VWidth: 1304
GlyphClass: 2
UnlinkRmOvrlpSave: 1
Flags: HMW
LayerCount: 2
Fore
SplineSet
2 -56 m 2
 54 -4 l 2
 58 0 62 0 66 -4 c 2
 118 -54 l 2
 122 -58 122 -65 118 -67 c 2
 66 -118 l 2
 62 -122 58 -122 54 -118 c 2
 2 -68 l 2
 0 -64 0 -58 2 -56 c 2
66 -175 m 2
 114 -126 l 2
 118 -122 122 -122 126 -126 c 2
 174 -174 l 2
 178 -178 178 -182 174 -186 c 2
 126 -234 l 2
 122 -238 116 -238 114 -234 c 2
 66 -186 l 2
 62 -184 62 -177 66 -175 c 2
124 -54 m 2
 174 -3 l 2
 178 1 184 1 188 -3 c 2
 238 -53 l 2
 242 -57 242 -63 238 -67 c 2
 186 -117 l 2
 182 -121 178 -121 174 -117 c 2
 124 -67 l 2
 120 -63 120 -58 124 -54 c 2
EndSplineSet
Colour: ffda6b
EndChar

StartChar: _.num.0
Encoding: 65611 -1 75
GlifName: _.num.0
Width: 1300
VWidth: 1424
GlyphClass: 2
Flags: HM
LayerCount: 2
Fore
SplineSet
805 315 m 0
 805 393 856 444 931 444 c 0
 1009 443 1055 388 1055 315 c 0
 1055 236 1005 194 931 194 c 0
 855 195 805 240 805 315 c 0
856 317 m 0
 856 267 888 245 931 245 c 0
 975 245 1006 270 1006 317 c 0
 1006 361 975 389 931 389 c 0
 885 389 856 361 856 317 c 0
EndSplineSet
Colour: ffda6b
EndChar

StartChar: _.num.1
Encoding: 65612 -1 76
GlifName: _.num.1
Width: 315
VWidth: 1331
GlyphClass: 2
Flags: HMW
LayerCount: 2
Fore
SplineSet
64 572 m 1
 119 700 l 1
 220 517 251 326 251 187 c 0
 251 98 239 31 223 -0 c 1
 185 -25 l 1
 189 13 191 52 191 90 c 0
 191 237 158 388 64 572 c 1
EndSplineSet
Colour: ffda6b
EndChar

StartChar: _.num.2
Encoding: 65613 -1 77
GlifName: _.num.2
Width: 536
VWidth: 1331
GlyphClass: 2
Flags: HMW
LayerCount: 2
Fore
SplineSet
446 692 m 0
 472 692 472 608 472 588 c 0
 472 444 384 375 291 375 c 0
 272 375 252 378 233 384 c 1
 247 312 252 245 252 187 c 0
 252 99 239 31 223 -0 c 1
 185 -25 l 1
 189 13 191 52 191 90 c 0
 191 237 158 388 64 572 c 1
 119 700 l 1
 137 666 153 632 167 598 c 0
 200 533 251 503 299 503 c 0
 364 503 424 558 424 649 c 0
 424 653 423 657 423 661 c 0
 423 680 435 692 446 692 c 0
EndSplineSet
Colour: ffda6b
EndChar

StartChar: _.num.3
Encoding: 65614 -1 78
GlifName: _.num.3
Width: 707
VWidth: 1331
GlyphClass: 2
Flags: HMW
LayerCount: 2
Fore
SplineSet
64 572 m 1
 119 700 l 1
 137 666 154 631 169 597 c 0
 201 532 244 503 284 503 c 0
 338 503 384 556 384 646 c 0
 384 651 384 656 384 661 c 0
 384 680 395 692 406 692 c 0
 413 692 421 686 423 674 c 0
 430 638 434 606 434 577 c 0
 434 570 434 562 433 555 c 1
 458 534 484 524 508 524 c 0
 556 524 595 565 595 647 c 0
 595 652 594 658 594 663 c 0
 594 681 606 692 616 692 c 0
 623 692 631 686 633 674 c 0
 640 639 643 607 643 579 c 0
 643 453 577 398 502 398 c 0
 466 398 428 410 394 434 c 1
 364 394 322 375 277 375 c 0
 262 375 248 377 233 381 c 1
 247 310 252 244 252 186 c 0
 252 98 239 31 223 -0 c 1
 185 -25 l 1
 189 13 191 52 191 90 c 0
 191 237 158 388 64 572 c 1
EndSplineSet
Colour: ffda6b
EndChar

StartChar: _.num.4.fa
Encoding: 65615 -1 79
GlifName: _.num.4.fa
Width: 652
VWidth: 1331
GlyphClass: 2
Flags: HMW
LayerCount: 2
Fore
SplineSet
64 572 m 1
 119 700 l 1
 147 648 170 596 188 544 c 0
 199 524 211 508 225 493 c 1
 223 505 222 517 222 529 c 0
 222 621 289 697 382 697 c 0
 426 697 477 680 528 638 c 0
 529 637 529 634 529 632 c 0
 529 621 517 600 509 600 c 0
 508 601 l 0
 475 609 446 612 421 612 c 0
 333 612 292 569 292 523 c 0
 292 479 330 433 398 420 c 0
 403 420 407 419 412 419 c 0
 467 419 519 432 556 450 c 0
 557 451 559 451 560 451 c 0
 573 451 588 428 588 412 c 0
 588 407 587 403 584 400 c 0
 520 345 451 319 386 319 c 0
 332 319 279 338 235 372 c 1
 247 305 252 242 252 188 c 0
 252 99 239 31 223 -0 c 1
 185 -25 l 1
 189 13 191 52 191 90 c 0
 191 237 158 388 64 572 c 1
EndSplineSet
Colour: ffda6b
EndChar

StartChar: _.num.4.ar
Encoding: 65616 -1 80
GlifName: _.num.4.ar
Width: 481
VWidth: 1331
GlyphClass: 2
Flags: HMW
LayerCount: 2
Fore
SplineSet
64 141 m 0
 64 162 70 185 85 203 c 0
 100 221 144 266 218 337 c 1
 124 397 78 434 78 450 c 0
 78 460 88 480 106 511 c 0
 126 542 142 561 154 570 c 0
 200 603 241 630 279 650 c 0
 318 668 342 682 353 688 c 0
 363 693 372 697 377 697 c 0
 382 697 385 693 385 688 c 0
 385 682 376 657 356 614 c 1
 218 540 l 2
 216 539 155 501 155 497 c 0
 155 490 188 469 251 433 c 0
 314 396 346 375 346 370 c 0
 346 354 154 211 149 193 c 0
 149 178 186 158 259 128 c 0
 333 97 384 82 417 82 c 1
 395 30 375 5 358 5 c 0
 327 5 271 21 192 54 c 0
 107 93 65 121 64 141 c 0
EndSplineSet
Colour: ffda6b
EndChar

StartChar: _.num.5.fa
Encoding: 65617 -1 81
GlifName: _.num.5.fa
Width: 632
VWidth: 1331
GlyphClass: 2
Flags: HMW
LayerCount: 2
Fore
SplineSet
64 141 m 0
 64 231 111 364 239 541 c 1
 223 559 211 571 207 575 c 1
 262 690 l 1
 407 526 568 340 568 181 c 0
 568 69 527 0 426 -0 c 0
 384 0 340 19 315 72 c 1
 293 25 229 0 180 -0 c 0
 116 0 64 46 64 141 c 0
126 158 m 0
 126 114 157 106 186 100 c 0
 190 99 194 98 198 98 c 0
 240 98 273 139 278 183 c 1
 347 199 l 1
 353 133 385 100 429 100 c 0
 479 100 498 120 498 153 c 0
 498 234 377 388 291 486 c 1
 166 301 126 207 126 158 c 0
EndSplineSet
Colour: ffda6b
EndChar

StartChar: _.num.5.ar
Encoding: 65618 -1 82
GlifName: _.num.5.ar
Width: 569
VWidth: 1331
GlyphClass: 2
Flags: HMW
LayerCount: 2
Fore
SplineSet
64 134 m 0
 64 234 167 615 297 615 c 0
 446 615 505 285 505 171 c 0
 505 82 345 -3 259 -3 c 0
 177 -3 64 56 64 134 c 0
124 207 m 0
 124 152 187 93 267 93 c 0
 320 93 447 142 447 192 c 0
 447 246 363 508 297 508 c 0
 226 508 124 266 124 207 c 0
EndSplineSet
Colour: ffda6b
EndChar

StartChar: _.num.6.fa
Encoding: 65619 -1 83
GlifName: _.num.6.fa
Width: 611
VWidth: 1331
GlyphClass: 2
Flags: HMW
LayerCount: 2
Fore
SplineSet
113 480 m 0
 113 604 227 674 332 674 c 0
 392 674 452 654 495 613 c 0
 499 610 501 605 501 600 c 0
 501 583 484 560 475 560 c 0
 474 560 l 0
 448 567 418 571 385 571 c 0
 319 571 245 554 194 509 c 1
 203 451 286 361 336 338 c 1
 390 368 453 390 523 400 c 1
 527 402 532 402 535 402 c 0
 544 402 547 396 547 385 c 0
 547 358 523 306 503 280 c 1
 313 259 194 140 84 -30 c 1
 64 12 l 1
 69 66 129 182 241 274 c 1
 172 327 113 399 113 480 c 0
EndSplineSet
Colour: ffda6b
EndChar

StartChar: _.num.6.ar
Encoding: 65620 -1 84
GlifName: _.num.6.ar
Width: 579
VWidth: 1331
GlyphClass: 2
Flags: HMW
LayerCount: 2
Fore
SplineSet
206 610 m 0
 222 610 360 629 378 629 c 0
 408 629 422 615 423 585 c 0
 423 293 453 137 515 93 c 1
 509 54 497 19 487 -20 c 1
 446 14 420 52 405 90 c 0
 383 148 371 246 371 411 c 2
 371 484 l 2
 371 510 367 523 358 524 c 1
 194 509 l 1
 107 509 64 548 64 624 c 0
 64 664 74 676 84 676 c 0
 92 676 101 669 105 661 c 0
 123 628 157 611 206 610 c 0
EndSplineSet
Colour: ffda6b
EndChar

StartChar: _.num.7
Encoding: 65621 -1 85
GlifName: _.num.7
Width: 599
VWidth: 1331
GlyphClass: 2
Flags: HMW
LayerCount: 2
Fore
SplineSet
64 572 m 1
 119 700 l 1
 200 552 289 296 300 208 c 1
 300 296 399 552 480 700 c 1
 535 572 l 1
 413 360 334 160 325 -0 c 1
 275 -25 l 1
 274 160 175 355 64 572 c 1
EndSplineSet
Colour: ffda6b
EndChar

StartChar: _.num.8
Encoding: 65622 -1 86
GlifName: _.num.8
Width: 599
VWidth: 1331
GlyphClass: 2
Flags: HMW
LayerCount: 2
Fore
SplineSet
64 103 m 1
 185 315 265 514 275 674 c 1
 325 700 l 1
 325 514 424 318 535 103 c 1
 480 -25 l 1
 399 122 310 380 299 468 c 1
 299 380 200 122 119 -25 c 1
 64 103 l 1
EndSplineSet
Colour: ffda6b
EndChar

StartChar: _.num.9
Encoding: 65623 -1 87
GlifName: _.num.9
Width: 558
VWidth: 1331
GlyphClass: 2
Flags: HMW
LayerCount: 2
Fore
SplineSet
205 307 m 0
 107 307 64 377 64 458 c 0
 64 470 65 481 67 493 c 0
 87 638 150 700 214 700 c 0
 289 700 365 616 374 484 c 1
 374 298 431 165 494 111 c 1
 446 -25 l 1
 375 53 316 156 309 330 c 1
 279 317 238 307 205 307 c 0
207 572 m 0
 160 572 117 533 117 484 c 0
 117 422 172 420 206 420 c 0
 242 420 274 428 297 438 c 1
 296 450 295 464 294 476 c 0
 280 546 244 572 207 572 c 0
EndSplineSet
Colour: ffda6b
EndChar

StartChar: _.sing.backslash
Encoding: 65624 -1 88
GlifName: _.sing.backslash
Width: 455
VWidth: 1197
GlyphClass: 2
Flags: HMW
LayerCount: 2
Fore
SplineSet
64 615 m 1
 107 670 l 1
 435 50 l 1
 390 7 l 1
 64 615 l 1
EndSplineSet
Colour: ffda6b
EndChar

StartChar: _.sing.slash
Encoding: 65625 -1 89
GlifName: _.sing.slash
Width: 455
VWidth: 1197
GlyphClass: 2
Flags: HMW
LayerCount: 2
Fore
SplineSet
64 50 m 1
 391 670 l 1
 435 615 l 1
 108 7 l 1
 64 50 l 1
EndSplineSet
Colour: ffda6b
EndChar

StartChar: _.sing.tajob
Encoding: 65626 -1 90
GlifName: _.sing.tajob
Width: 205
VWidth: 1197
GlyphClass: 2
Flags: HMW
LayerCount: 2
Fore
SplineSet
64 61 m 0
 64 97 92 125 126 125 c 0
 166 125 185 93 185 61 c 0
 185 30 167 0 128 -0 c 0
 92 0 64 27 64 61 c 0
73 642 m 1
 73 680 99 702 125 702 c 0
 150 702 174 683 176 642 c 1
 171 520 159 334 148 212 c 0
 146 207 136 203 126 203 c 0
 117 203 109 206 108 212 c 0
 99 351 80 519 73 642 c 1
EndSplineSet
Colour: ffda6b
EndChar

StartChar: _.sing.soal
Encoding: 65627 -1 91
GlifName: _.sing.soal
Width: 375
VWidth: 1304
GlyphClass: 2
Flags: HMW
LayerCount: 2
Fore
SplineSet
64 535 m 0
 64 624 128 701 214 702 c 0
 294 702 344 640 354 576 c 0
 355 572 355 568 355 565 c 0
 355 547 344 540 327 540 c 0
 326 540 324 540 323 540 c 1
 303 572 257 599 227 599 c 0
 178 599 139 579 139 542 c 0
 139 514 160 478 217 432 c 0
 257 399 285 358 285 316 c 0
 285 267 248 215 153 171 c 1
 135 194 l 1
 188 230 209 259 209 286 c 0
 209 315 184 342 147 372 c 0
 88 421 64 480 64 535 c 0
148 61 m 0
 148 97 175 125 211 125 c 0
 250 125 271 93 271 61 c 0
 271 30 251 0 212 -0 c 0
 176 0 148 27 148 61 c 0
EndSplineSet
Colour: ffda6b
EndChar

StartChar: _.sing.beezafeh
Encoding: 65628 -1 92
GlifName: _.sing.beezafeh
Width: 516
VWidth: 1352
GlyphClass: 2
Flags: HMW
LayerCount: 2
Fore
SplineSet
64 274 m 0
 64 295 74 316 92 316 c 2
 233 316 l 1
 233 468 l 2
 233 486 254 494 275 494 c 0
 296 494 317 486 317 468 c 2
 317 316 l 1
 468 316 l 2
 486 316 496 295 496 274 c 0
 496 253 486 231 468 231 c 2
 317 231 l 1
 317 90 l 2
 317 72 296 62 275 62 c 0
 254 62 233 72 233 90 c 2
 233 231 l 1
 92 231 l 2
 74 231 64 253 64 274 c 0
EndSplineSet
Colour: ffda6b
EndChar

StartChar: _.sing.menha
Encoding: 65629 -1 93
GlifName: _.sing.menha
Width: 542
VWidth: 0
GlyphClass: 2
Flags: HMW
LayerCount: 2
Fore
SplineSet
64 295 m 0
 64 317 73 340 93 340 c 2
 493 340 l 2
 512 340 522 317 522 294 c 0
 522 272 513 250 493 250 c 2
 93 250 l 2
 74 250 64 272 64 295 c 0
EndSplineSet
Colour: ffda6b
EndChar

StartChar: _.sing.virgul
Encoding: 65631 -1 95
GlifName: _.sing.virgul
Width: 223
VWidth: 1197
GlyphClass: 2
Flags: HMW
LayerCount: 2
Fore
SplineSet
64 92 m 0
 64 152 102 223 187 250 c 1
 196 216 l 1
 152 195 124 159 124 134 c 0
 124 126 127 119 132 114 c 1
 136 115 141 116 145 116 c 0
 175 116 203 89 203 59 c 0
 203 25 177 -1 138 -1 c 0
 90 -1 64 41 64 92 c 0
EndSplineSet
Colour: ffda6b
EndChar

StartChar: _.sing.dot_virgul
Encoding: 65632 -1 96
GlifName: _.sing.dot_virgul
Width: 223
VWidth: 1304
GlyphClass: 2
Flags: HMW
LayerCount: 2
Fore
SplineSet
64 293 m 0
 64 353 102 423 187 449 c 1
 196 417 l 1
 152 396 124 360 124 334 c 0
 124 326 127 319 132 314 c 1
 137 315 141 316 146 316 c 0
 176 316 203 290 203 260 c 0
 203 226 177 199 138 199 c 0
 90 199 64 242 64 293 c 0
77 61 m 0
 77 97 104 125 140 125 c 0
 179 125 199 93 199 61 c 0
 199 30 180 0 141 -0 c 0
 105 0 77 27 77 61 c 0
EndSplineSet
Colour: ffda6b
EndChar

StartChar: _.sing.2noqte
Encoding: 65633 -1 97
GlifName: _.sing.2noqte
Width: 207
VWidth: 1352
GlyphClass: 2
Flags: HMW
LayerCount: 2
Fore
SplineSet
64 192 m 0
 64 226 91 255 127 255 c 0
 166 255 187 223 187 191 c 0
 187 160 167 130 128 130 c 0
 92 130 64 156 64 192 c 0
64 401 m 0
 64 437 91 465 127 465 c 0
 166 465 187 433 187 401 c 0
 187 370 167 340 128 340 c 0
 92 340 64 367 64 401 c 0
EndSplineSet
Colour: ffda6b
EndChar

StartChar: _.sing.noqte
Encoding: 65634 -1 98
GlifName: _.sing.noqte
Width: 226
VWidth: 1352
GlyphClass: 2
Flags: HMW
LayerCount: 2
Fore
SplineSet
64 71 m 0
 64 110 95 141 134 141 c 0
 173 141 206 110 206 71 c 0
 206 32 173 0 134 0 c 0
 95 0 64 32 64 71 c 0
EndSplineSet
Colour: ffda6b
EndChar

StartChar: _.sing.gheiomeh.right
Encoding: 65635 -1 99
GlifName: _.sing.gheiomeh.right
Width: 354
VWidth: 1352
GlyphClass: 2
Flags: HMW
LayerCount: 2
Fore
SplineSet
64 235 m 0
 64 320 97 406 178 454 c 0
 184 455 190 443 189 442 c 0
 149 376 132 303 132 233 c 0
 132 152 155 73 194 12 c 0
 195 10 191 -1 182 -0 c 0
 111 35 64 134 64 235 c 0
204 235 m 0
 204 320 238 406 319 454 c 0
 325 455 330 443 329 442 c 0
 290 376 272 304 272 234 c 0
 272 153 295 73 333 12 c 0
 335 10 331 -1 322 -0 c 0
 251 35 204 134 204 235 c 0
EndSplineSet
Colour: ffda6b
EndChar

StartChar: _.sing.gheiomeh.left
Encoding: 65636 -1 100
GlifName: _.sing.gheiomeh.left
Width: 354
VWidth: 1352
GlyphClass: 2
Flags: HMW
LayerCount: 2
Fore
SplineSet
65 12 m 0
 103 74 126 152 126 234 c 0
 126 304 109 377 69 442 c 0
 68 443 73 455 79 454 c 0
 160 406 194 320 194 235 c 0
 194 134 147 35 76 -0 c 0
 69 -1 63 10 65 12 c 0
204 12 m 0
 243 74 266 152 266 234 c 0
 266 304 249 377 210 442 c 0
 209 443 214 455 220 454 c 0
 301 406 334 320 334 235 c 0
 334 134 287 35 216 -0 c 0
 207 -1 203 10 204 12 c 0
EndSplineSet
Colour: ffda6b
EndChar

StartChar: _.sing.parantez.right
Encoding: 65637 -1 101
GlifName: _.sing.parantez.right
Width: 292
VWidth: 1352
GlyphClass: 2
Flags: HMW
LayerCount: 2
Fore
SplineSet
64 297 m 0
 64 450 122 604 234 700 c 1
 271 674 l 1
 189 577 147 437 147 298 c 0
 147 159 188 21 272 -75 c 1
 235 -100 l 1
 120 -6 64 145 64 297 c 0
EndSplineSet
Colour: ffda6b
EndChar

StartChar: _.sing.parantez.left
Encoding: 65638 -1 102
GlifName: _.sing.parantez.left
Width: 292
VWidth: 1352
GlyphClass: 2
Flags: HMW
LayerCount: 2
Fore
SplineSet
64 -75 m 1
 148 21 189 159 189 298 c 0
 189 437 147 577 65 674 c 1
 102 700 l 1
 214 604 272 450 272 297 c 0
 272 145 216 -6 101 -100 c 1
 64 -75 l 1
EndSplineSet
Colour: ffda6b
EndChar

StartChar: _.sing.koroshe.right
Encoding: 65641 -1 105
GlifName: _.sing.koroshe.right
Width: 264
VWidth: 1197
GlyphClass: 2
Flags: HMW
LayerCount: 2
Fore
SplineSet
64 -101 m 1
 64 761 l 1
 244 761 l 1
 244 700 l 1
 144 700 l 1
 144 -40 l 1
 244 -40 l 1
 244 -101 l 1
 64 -101 l 1
EndSplineSet
Colour: ffda6b
EndChar

StartChar: _.sing.koroshe.left
Encoding: 65642 -1 106
GlifName: _.sing.koroshe.left
Width: 264
VWidth: 1197
GlyphClass: 2
Flags: HMW
LayerCount: 2
Fore
SplineSet
64 -40 m 1
 164 -40 l 1
 164 700 l 1
 64 700 l 1
 64 761 l 1
 244 761 l 1
 244 -100 l 1
 64 -100 l 1
 64 -40 l 1
EndSplineSet
Colour: ffda6b
EndChar

StartChar: _.sing.akolad.right
Encoding: 65643 -1 107
GlifName: _.sing.akolad.right
Width: 341
VWidth: 1197
GlyphClass: 2
Flags: HMW
LayerCount: 2
Fore
SplineSet
64 295 m 1
 64 313 64 333 64 351 c 1
 130 353 140 381 140 450 c 2
 140 626 l 2
 140 750 192 751 321 751 c 1
 321 700 l 1
 246 700 224 697 224 633 c 2
 224 452 l 2
 224 386 208 338 149 324 c 1
 208 309 224 260 224 194 c 2
 224 15 l 2
 224 -50 246 -54 321 -54 c 1
 321 -104 l 1
 192 -104 140 -103 140 21 c 2
 140 197 l 2
 140 265 130 294 64 295 c 1
EndSplineSet
Colour: ffda6b
EndChar

StartChar: _.sing.akolad.left
Encoding: 65644 -1 108
GlifName: _.sing.akolad.left
Width: 341
VWidth: 1197
GlyphClass: 2
Flags: HMW
LayerCount: 2
Fore
SplineSet
64 -54 m 1
 139 -54 161 -50 161 15 c 2
 161 194 l 2
 161 260 176 309 235 324 c 1
 176 338 161 386 161 452 c 2
 161 633 l 2
 161 697 139 700 64 700 c 1
 64 751 l 1
 192 751 244 750 244 626 c 2
 244 450 l 2
 244 381 253 353 321 351 c 1
 321 333 321 313 321 295 c 1
 253 294 244 265 244 197 c 2
 244 21 l 2
 244 -103 192 -104 64 -104 c 1
 64 -54 l 1
EndSplineSet
Colour: ffda6b
EndChar

StartChar: _.mark.maad
Encoding: 65645 -1 109
GlifName: _.mark.maad
Width: 0
VWidth: 1352
GlyphClass: 2
Flags: HMW
LayerCount: 2
Fore
SplineSet
0 -1 m 1
 12 58 38 70 70 70 c 0
 92 70 115 64 139 64 c 0
 159 64 180 69 198 84 c 1
 180 29 151 17 120 17 c 0
 96 17 71 24 49 24 c 0
 30 24 12 19 0 -1 c 1
EndSplineSet
Colour: ffda6b
EndChar

StartChar: _.mark.fatheh
Encoding: 65646 -1 110
GlifName: _.mark.fatheh
Width: 0
VWidth: 2310
GlyphClass: 2
Flags: HMW
LayerCount: 2
Fore
SplineSet
0 -3 m 1
 0 45 l 1
 199 112 l 1
 199 65 l 1
 0 -3 l 1
EndSplineSet
Colour: ffda6b
EndChar

StartChar: _.mark.kasreh
Encoding: 65647 -1 111
GlifName: _.mark.kasreh
Width: 0
VWidth: 2384
GlyphClass: 2
Flags: HMW
LayerCount: 2
Fore
SplineSet
0 -69 m 1
 197 -4 l 1
 197 -49 l 1
 0 -116 l 1
 0 -69 l 1
EndSplineSet
Colour: ffda6b
EndChar

StartChar: _.mark.zameh
Encoding: 65648 -1 112
GlifName: _.mark.zameh
Width: 0
VWidth: 2277
GlyphClass: 2
Flags: HMW
LayerCount: 2
Fore
SplineSet
127 265 m 0
 156 265 185 235 185 181 c 0
 185 159 179 137 169 119 c 1
 179 118 188 117 199 116 c 1
 185 66 l 1
 167 68 149 71 134 75 c 1
 96 37 43 11 16 -0 c 1
 0 50 l 1
 34 64 63 79 85 93 c 1
 49 113 36 140 36 166 c 0
 36 216 85 265 127 265 c 0
71 177 m 0
 71 160 86 140 127 128 c 1
 143 144 150 157 150 166 c 0
 145 201 127 214 110 214 c 0
 90 214 71 197 71 177 c 0
EndSplineSet
Colour: ffda6b
EndChar

StartChar: _.mark.tanvin_fatheh
Encoding: 65649 -1 113
GlifName: _.mark.tanvin_fatheh
Width: 0
VWidth: 2280
GlyphClass: 2
Flags: HMW
LayerCount: 2
Fore
SplineSet
0 -3 m 1
 0 45 l 1
 199 112 l 1
 199 65 l 1
 0 -3 l 1
0 82 m 1
 0 129 l 1
 199 196 l 1
 199 149 l 1
 0 82 l 1
EndSplineSet
Colour: ffda6b
EndChar

StartChar: _.mark.tanvin_kasreh
Encoding: 65650 -1 114
GlifName: _.mark.tanvin_kasreh
Width: 0
VWidth: 2413
GlyphClass: 2
Flags: HMW
LayerCount: 2
Fore
SplineSet
0 -67 m 1
 199 -0 l 1
 199 -47 l 1
 0 -113 l 1
 0 -67 l 1
0 -152 m 1
 199 -84 l 1
 199 -132 l 1
 0 -198 l 1
 0 -152 l 1
EndSplineSet
Colour: ffda6b
EndChar

StartChar: _.mark.tanvin_zameh
Encoding: 65651 -1 115
GlifName: _.mark.tanvin_zameh
Width: 0
VWidth: 2273
GlyphClass: 2
Flags: HMW
LayerCount: 2
Fore
SplineSet
0 130 m 0
 0 184 39 236 117 285 c 1
 148 285 l 1
 148 283 l 1
 79 230 47 189 47 161 c 0
 47 133 62 118 94 114 c 1
 90 83 76 69 49 69 c 0
 22 70 0 100 0 130 c 0
168 231 m 0
 193 231 219 205 219 158 c 0
 219 138 213 120 204 103 c 1
 213 102 221 102 231 101 c 1
 219 58 l 1
 202 59 189 61 175 65 c 1
 142 32 96 10 71 -0 c 1
 58 43 l 1
 88 57 112 69 132 81 c 1
 101 98 89 121 89 144 c 0
 89 188 131 231 168 231 c 0
120 154 m 0
 120 139 133 122 169 111 c 1
 183 126 188 136 188 145 c 0
 184 175 169 187 154 187 c 0
 137 187 120 172 120 154 c 0
EndSplineSet
Colour: ffda6b
EndChar

StartChar: _.mark.tashdid
Encoding: 65652 -1 116
GlifName: _.mark.tashdid
Width: 0
VWidth: 1833
GlyphClass: 2
Flags: HMW
LayerCount: 2
Fore
SplineSet
0 77 m 0
 0 88 2 99 5 111 c 1
 34 132 l 1
 32 122 32 112 32 104 c 0
 32 70 46 53 60 53 c 0
 73 53 86 68 86 97 c 0
 86 108 84 120 80 135 c 1
 109 150 l 1
 121 100 139 82 153 82 c 0
 164 82 172 94 172 112 c 0
 172 126 167 144 154 162 c 1
 183 191 l 1
 204 157 213 125 213 98 c 0
 213 52 187 22 155 22 c 0
 142 22 130 27 116 37 c 1
 100 10 79 -2 60 -2 c 0
 28 -2 0 31 0 77 c 0
EndSplineSet
Colour: ffda6b
EndChar

StartChar: _.mark.hamze
Encoding: 65653 -1 117
GlifName: _.mark.hamze
Width: 0
VWidth: 1841
GlyphClass: 2
Flags: HMW
LayerCount: 2
Fore
SplineSet
110 210 m 0
 149 210 171 175 171 155 c 0
 171 148 168 143 163 143 c 0
 161 143 158 144 154 146 c 0
 147 149 124 155 100 155 c 0
 74 155 40 149 40 124 c 0
 40 91 142 91 195 90 c 1
 193 84 184 70 170 48 c 1
 102 33 48 12 7 -6 c 1
 15 33 l 1
 21 38 38 45 49 49 c 1
 49 52 l 1
 16 62 0 78 0 101 c 0
 0 156 59 210 110 210 c 0
EndSplineSet
Colour: ffda6b
EndChar

StartChar: _.mark.sakon
Encoding: 65654 -1 118
GlifName: _.mark.sakon
Width: 0
VWidth: 2099
GlyphClass: 2
Flags: HMW
LayerCount: 2
Fore
SplineSet
102 200 m 0
 148 200 174 173 174 125 c 0
 174 53 122 -1 41 -1 c 1
 27 13 l 1
 87 46 127 82 144 116 c 1
 131 123 117 125 104 125 c 0
 70 125 38 105 16 76 c 1
 0 82 l 1
 0 165 54 200 102 200 c 0
EndSplineSet
Colour: ffda6b
EndChar

StartChar: _.mark.alef
Encoding: 65655 -1 119
GlifName: _.mark.alef
Width: 0
VWidth: 2091
GlyphClass: 2
Flags: HMW
LayerCount: 2
Fore
SplineSet
0 186 m 1
 46 240 l 1
 60 180 71 110 71 69 c 0
 71 30 40 10 31 -0 c 1
 31 42 20 111 0 186 c 1
EndSplineSet
Colour: ffda6b
EndChar

StartChar: _.sing.momaiez
Encoding: 65656 -1 120
GlifName: _.sing.momaiez
Width: 333
VWidth: 1352
GlyphClass: 2
Flags: HMW
LayerCount: 2
Fore
SplineSet
64 -105 m 1
 260 343 l 1
 313 340 l 1
 113 -115 l 1
 64 -105 l 1
EndSplineSet
Colour: ffda6b
EndChar

StartChar: _.sing.hezare
Encoding: 65657 -1 121
GlifName: _.sing.hezare
Width: 164
VWidth: 1197
GlyphClass: 2
Flags: HMW
LayerCount: 2
Fore
SplineSet
64 796 m 1
 65 816 85 826 105 826 c 0
 125 826 145 816 144 796 c 1
 116 671 l 2
 114 661 107 654 101 654 c 0
 95 654 89 660 87 670 c 2
 64 796 l 1
EndSplineSet
Colour: ffda6b
EndChar

StartChar: _.sing.darsad
Encoding: 65658 -1 122
GlifName: _.sing.darsad
Width: 490
VWidth: 1197
GlyphClass: 2
Flags: HMW
LayerCount: 2
Fore
SplineSet
64 533 m 0
 64 569 92 597 128 597 c 0
 168 597 189 564 189 531 c 0
 189 500 170 469 130 469 c 0
 93 469 64 497 64 533 c 0
79 20 m 0
 79 32 83 43 89 50 c 0
 219 249 326 449 412 650 c 0
 417 662 426 670 437 670 c 0
 454 670 464 660 464 640 c 2
 464 636 l 1
 436 557 389 457 325 331 c 0
 260 205 196 103 132 24 c 0
 118 8 106 0 96 -0 c 0
 85 0 79 8 79 20 c 0
346 124 m 0
 346 160 373 188 409 188 c 0
 450 188 470 155 470 122 c 0
 470 91 451 60 411 60 c 0
 374 60 346 88 346 124 c 0
EndSplineSet
Colour: ffda6b
EndChar

StartChar: _.sing.mosavi
Encoding: 65659 -1 123
GlifName: _.sing.mosavi
Width: 473
VWidth: 1197
GlyphClass: 2
Flags: HMW
LayerCount: 2
Fore
SplineSet
64 208 m 0
 64 227 72 246 89 246 c 2
 427 246 l 2
 444 246 453 226 453 207 c 0
 453 188 444 170 427 170 c 2
 89 170 l 2
 72 170 64 189 64 208 c 0
64 362 m 0
 64 381 72 400 89 400 c 2
 427 400 l 2
 444 400 453 380 453 361 c 0
 453 342 444 324 427 324 c 2
 89 324 l 2
 72 324 64 343 64 362 c 0
EndSplineSet
Colour: ffda6b
EndChar

StartChar: _.beh_k.init
Encoding: 65661 -1 125
GlifName: _.beh_k.init
Width: 303
VWidth: 1197
GlyphClass: 2
UnlinkRmOvrlpSave: 1
Flags: HMW
LayerCount: 2
Fore
SplineSet
-50 49 m 0
 -50 76 -27 100 -1 100 c 2
 79 100 l 2
 133 100 168 106 191 120 c 1
 190 140 182 161 170 187 c 1
 138 247 l 1
 183 338 l 1
 215 277 l 1
 230 246 238 213 239 180 c 1
 239 172 l 1
 237 62 192 0 79 -0 c 2
 -1 -0 l 2
 -25 0 -50 24 -50 49 c 0
EndSplineSet
Colour: ffda6b
EndChar

StartChar: _.beh_k.medi
Encoding: 65662 -1 126
GlifName: _.beh_k.medi
Width: 364
VWidth: 1304
GlyphClass: 2
UnlinkRmOvrlpSave: 1
Flags: HMW
LayerCount: 2
Fore
SplineSet
-50 50 m 0
 -49 75 -26 100 0 100 c 2
 80 100 l 2
 153 100 180 120 186 152 c 1
 196 220 l 1
 247 240 l 1
 238 159 l 2
 238 156 237 153 237 150 c 0
 237 108 292 100 327 100 c 2
 364 100 l 1
 364 -0 l 1
 329 -0 l 2
 267 0 235 17 210 55 c 1
 184 21 140 0 61 -0 c 2
 0 -0 l 2
 -26 0 -50 24 -50 50 c 0
EndSplineSet
Colour: ffda6b
EndChar

StartChar: _.sing.3noqte
Encoding: 65663 -1 127
GlifName: _.sing.3noqte
Width: 541
VWidth: 1304
GlyphClass: 2
Flags: HMW
LayerCount: 2
Fore
SplineSet
64 50 m 0
 64 77 86 100 113 100 c 0
 141 100 164 77 164 50 c 0
 164 22 141 0 113 -0 c 0
 86 0 64 22 64 50 c 0
226 56 m 0
 226 88 252 113 283 113 c 0
 315 113 341 88 341 56 c 0
 341 25 315 0 283 -0 c 0
 252 0 226 25 226 56 c 0
393 64 m 0
 393 100 421 128 457 128 c 0
 493 128 521 100 521 64 c 0
 521 28 493 0 457 -0 c 0
 421 0 393 28 393 64 c 0
EndSplineSet
Colour: ffda6b
EndChar

StartChar: s.khat_tire
Encoding: 8208 8208 138
GlifName: s.khat_tire
Width: 504
VWidth: 0
GlyphClass: 2
Flags: HMW
LayerCount: 2
Fore
SplineSet
55 229 m 1
 55 307 l 1
 451 307 l 1
 451 229 l 1
 55 229 l 1
EndSplineSet
Colour: d7d7d7
EndChar

StartChar: s.zwj
Encoding: 8205 8205 174
GlifName: s.zwj
Width: 0
VWidth: 1331
GlyphClass: 2
Flags: HMW
LayerCount: 2
Fore
SplineSet
25 -327 m 1
 -25 -327 l 1
 -25 579 l 1
 -111 491 l 1
 -141 521 l 1
 -30 631 l 1
 -141 740 l 1
 -111 772 l 1
 0 660 l 1
 111 772 l 1
 141 740 l 1
 30 631 l 1
 141 521 l 1
 111 491 l 1
 25 579 l 1
 25 -327 l 1
EndSplineSet
Colour: d7d7d7
EndChar

StartChar: s.tagsim
Encoding: 247 247 182
GlifName: s.tagsim
Width: 564
VWidth: 1278
GlyphClass: 2
Flags: HMW
LayerCount: 2
Fore
SplineSet
59 352 m 1
 59 429 l 1
 506 429 l 1
 506 352 l 1
 59 352 l 1
234 204 m 1
 234 299 l 1
 330 299 l 1
 330 204 l 1
 234 204 l 1
234 482 m 1
 234 577 l 1
 330 577 l 1
 330 482 l 1
 234 482 l 1
EndSplineSet
Colour: d7d7d7
EndChar

StartChar: s.zwnj
Encoding: 8204 8204 215
GlifName: s.zwnj
Width: 0
VWidth: 1331
GlyphClass: 2
Flags: HMW
LayerCount: 2
Fore
SplineSet
-25 -308 m 1
 -25 710 l 1
 25 710 l 1
 25 -308 l 1
 -25 -308 l 1
EndSplineSet
Colour: d7d7d7
EndChar

StartChar: s.dotted_circle
Encoding: 9676 9676 220
GlifName: s.dotted_circle
Width: 576
VWidth: 1890
GlyphClass: 2
Flags: HMW
LayerCount: 2
Fore
SplineSet
60 181 m 0
 60 196 67 203 82 203 c 0
 97 203 104 196 104 182 c 2
 104 180 l 2
 104 166 97 159 82 159 c 0
 67 159 60 166 60 181 c 0
76 103 m 0
 76 118 83 126 98 126 c 0
 113 126 120 118 120 103 c 0
 120 88 113 80 98 80 c 0
 83 80 76 88 76 103 c 0
76 259 m 0
 76 274 83 282 98 282 c 0
 113 282 120 274 120 259 c 0
 120 244 113 236 99 236 c 0
 84 236 76 244 76 259 c 0
120 34 m 0
 120 49 127 56 142 57 c 0
 157 56 164 49 165 34 c 0
 164 19 157 12 142 12 c 0
 127 12 120 19 120 34 c 0
120 326 m 0
 120 341 127 348 142 349 c 0
 157 348 164 341 165 326 c 0
 164 311 157 304 142 304 c 0
 127 304 120 311 120 326 c 0
187 -8 m 0
 187 7 195 14 210 14 c 0
 225 14 233 7 233 -8 c 0
 233 -23 225 -30 210 -30 c 0
 195 -30 187 -23 187 -8 c 0
187 372 m 0
 187 387 195 394 210 394 c 0
 225 394 233 387 233 372 c 0
 233 357 225 350 210 350 c 0
 195 350 187 357 187 372 c 0
310 -26 m 0
 310 -41 303 -48 288 -48 c 0
 273 -48 266 -41 265 -26 c 0
 266 -11 273 -4 288 -3 c 0
 303 -4 310 -11 310 -26 c 0
288 410 m 0
 303 410 310 403 310 388 c 0
 310 373 303 366 288 365 c 0
 273 366 266 373 265 388 c 0
 266 403 273 410 288 410 c 0
344 -8 m 0
 344 7 352 14 367 14 c 0
 382 14 390 7 390 -8 c 0
 390 -22 382 -30 367 -31 c 0
 352 -30 344 -22 344 -8 c 0
344 372 m 0
 344 387 352 394 367 394 c 0
 382 394 390 387 390 372 c 0
 390 358 382 350 367 349 c 0
 352 350 344 358 344 372 c 0
412 34 m 0
 412 49 419 56 434 57 c 0
 449 56 456 49 456 34 c 0
 456 19 449 12 434 12 c 0
 419 12 412 19 412 34 c 0
412 326 m 0
 412 341 419 348 434 349 c 0
 449 348 456 341 456 326 c 0
 456 311 449 304 434 304 c 0
 419 304 412 311 412 326 c 0
456 103 m 0
 456 118 463 126 478 126 c 0
 492 126 500 118 501 103 c 0
 500 88 492 80 478 80 c 0
 463 80 456 88 456 103 c 0
456 259 m 0
 456 274 463 282 478 282 c 0
 492 282 500 274 501 259 c 0
 500 244 492 236 478 236 c 0
 463 236 456 244 456 259 c 0
472 181 m 0
 472 196 479 203 494 203 c 0
 509 203 516 196 517 182 c 2
 517 180 l 2
 516 166 509 159 494 159 c 0
 479 159 472 166 472 181 c 0
EndSplineSet
Colour: d7d7d7
EndChar

StartChar: s.figure_dash
Encoding: 8210 8210 224
GlifName: s.figure_dash
Width: 600
VWidth: 0
GlyphClass: 2
Flags: HMW
LayerCount: 2
Fore
SplineSet
55 229 m 1
 55 307 l 1
 547 307 l 1
 547 229 l 1
 55 229 l 1
EndSplineSet
Colour: d7d7d7
EndChar

StartChar: s.em_dash
Encoding: 8212 8212 263
GlifName: s.em_dash
Width: 1200
VWidth: 1175
GlyphClass: 2
Flags: HMW
LayerCount: 2
Fore
SplineSet
55 229 m 1
 55 307 l 1
 1147 307 l 1
 1147 229 l 1
 55 229 l 1
EndSplineSet
Colour: d7d7d7
EndChar

StartChar: s.bullet
Encoding: 8226 8226 278
GlifName: s.bullet
Width: 602
VWidth: 1331
GlyphClass: 2
Flags: HMW
LayerCount: 2
Fore
SplineSet
532 432 m 0
 532 369 509 315 464 270 c 0
 419 225 365 202 302 202 c 0
 245 202 194 223 147 266 c 0
 100 309 77 357 77 410 c 0
 77 483 99 542 142 585 c 0
 185 628 236 650 295 650 c 0
 368 650 426 630 468 591 c 0
 510 552 532 499 532 432 c 0
EndSplineSet
Colour: d7d7d7
EndChar

StartChar: s.en_dash
Encoding: 8211 8211 310
GlifName: s.en_dash
Width: 600
VWidth: 1175
GlyphClass: 2
Flags: HMW
LayerCount: 2
Fore
SplineSet
55 229 m 1
 55 307 l 1
 547 307 l 1
 547 229 l 1
 55 229 l 1
EndSplineSet
Colour: d7d7d7
EndChar

StartChar: s.horizontal_bar
Encoding: 8213 8213 316
GlifName: s.horizontal_bar
Width: 2400
VWidth: 1175
GlyphClass: 2
Flags: HMW
LayerCount: 2
Fore
SplineSet
55 229 m 1
 55 307 l 1
 2347 307 l 1
 2347 229 l 1
 55 229 l 1
EndSplineSet
Colour: d7d7d7
EndChar

StartChar: s.lrm
Encoding: 8206 8206 317
GlifName: s.lrm
Width: 0
VWidth: 1331
GlyphClass: 2
Flags: HMW
LayerCount: 2
Fore
SplineSet
-25 -308 m 1
 -25 676 l 1
 196 676 l 1
 106 759 l 1
 138 790 l 1
 280 651 l 1
 138 510 l 1
 106 544 l 1
 196 628 l 1
 22 628 l 1
 22 -308 l 1
 -25 -308 l 1
EndSplineSet
Colour: d7d7d7
EndChar

StartChar: s.rlm
Encoding: 8207 8207 346
GlifName: s.rlm
Width: 0
VWidth: 1331
GlyphClass: 2
Flags: HMW
LayerCount: 2
Fore
SplineSet
22 676 m 1
 22 -308 l 1
 -25 -308 l 1
 -25 628 l 1
 -196 628 l 1
 -108 544 l 1
 -138 510 l 1
 -280 651 l 1
 -138 790 l 1
 -108 759 l 1
 -196 676 l 1
 22 676 l 1
EndSplineSet
Colour: d7d7d7
EndChar

StartChar: _.sing.yeh_domBoride
Encoding: 65664 -1 400
GlifName: _.mark.he_yeh
Width: 333
VWidth: 1304
GlyphClass: 1
UnlinkRmOvrlpSave: 1
Flags: HMW
LayerCount: 2
Fore
SplineSet
299 97 m 0
 299 26 214 -2 152 -2 c 0
 127 -2 103 2 87 11 c 0
 71 23 64 41 64 45 c 0
 64 57 98 48 115 48 c 0
 170 48 252 61 252 86 c 0
 252 123 159 105 159 178 c 0
 159 237 214 293 273 293 c 0
 304 293 313 272 313 243 c 0
 313 231 311 220 308 213 c 1
 299 208 287 208 283 214 c 0
 276 225 267 230 256 230 c 0
 232 230 204 206 204 183 c 0
 204 162 299 158 299 97 c 0
EndSplineSet
EndChar

StartChar: uni0000
Encoding: 0 0 401
GlifName: uni0000
Width: 497
VWidth: 0
GlyphClass: 2
Flags: HMW
LayerCount: 2
Fore
SplineSet
59 -251 m 1
 59 709 l 1
 438 709 l 1
 438 -251 l 1
 59 -251 l 1
105 -181 m 1
 387 -181 l 1
 387 648 l 1
 105 648 l 1
 105 -181 l 1
EndSplineSet
EndChar

StartChar: _.ghaf.medi
Encoding: 65665 -1 402
GlifName: _.ghaf.medi
Width: 509
VWidth: 0
GlyphClass: 2
Flags: HMW
LayerCount: 2
Fore
SplineSet
-50 50 m 0
 -49 75 -25 99 -2 100 c 1
 126 100 l 2
 181 100 221 115 249 132 c 1
 228 228 138 309 8 405 c 0
 -1 412 -6 425 -6 442 c 0
 -6 489 26 561 68 576 c 2
 424 700 l 1
 397 598 l 1
 72 481 l 1
 138 426 198 376 239 326 c 2
 359 182 l 2
 423 104 444 100 509 100 c 1
 509 -0 l 1
 438 0 387 11 314 96 c 1
 296 119 l 1
 278 45 218 0 127 -0 c 2
 0 -0 l 1
 -25 1 -50 24 -50 50 c 0
85 651 m 1
 104 705 l 1
 376 800 l 1
 359 747 l 1
 85 651 l 1
EndSplineSet
Colour: ffda6b
EndChar

StartChar: _.ghaf.init
Encoding: 65666 -1 403
GlifName: _.ghaf.init
Width: 508
VWidth: 0
GlyphClass: 2
Flags: HMW
LayerCount: 2
Fore
SplineSet
-50 50 m 0
 -50 76 -26 100 0 100 c 2
 146 100 l 2
 201 100 241 115 269 132 c 1
 248 228 158 309 28 405 c 0
 19 412 14 425 14 442 c 0
 14 489 46 561 88 576 c 2
 444 700 l 1
 417 598 l 1
 92 481 l 1
 216 376 316 298 321 181 c 1
 321 178 l 2
 321 174 321 171 321 167 c 0
 321 66 256 0 147 -0 c 2
 0 -0 l 2
 -26 0 -50 24 -50 50 c 0
105 651 m 1
 124 705 l 1
 396 800 l 1
 378 747 l 1
 105 651 l 1
EndSplineSet
Colour: ffda6b
EndChar

StartChar: _.la.isol.fa
Encoding: 65667 -1 404
Width: 484
VWidth: 0
Flags: HMW
LayerCount: 2
Fore
SplineSet
64 100 m 0
 64 105 63 114 69 114 c 0
 76 114 81 100 123 100 c 0
 175 100 288 113 361 168 c 1
 336 618 l 1
 397 700 l 1
 404 697 l 1
 420 241 l 1
 420 179 396 135 376 108 c 0
 332 29 208 0 137 -0 c 0
 103 0 64 58 64 100 c 0
86 528 m 1
 147 610 l 1
 154 607 l 1
 177 514 193 421 193 342 c 0
 193 261 176 195 131 157 c 1
 115 162 l 1
 130 208 136 248 136 290 c 0
 136 356 118 425 86 528 c 1
EndSplineSet
Colour: ffda6b
EndChar

StartChar: _.la.fina.fa
Encoding: 65668 -1 405
Width: 539
VWidth: 0
Flags: HMW
LayerCount: 2
Fore
SplineSet
64 100 m 0
 64 105 63 114 69 114 c 0
 76 114 81 100 123 100 c 0
 175 100 288 113 361 168 c 1
 336 618 l 1
 397 700 l 1
 404 697 l 1
 421 200 l 1
 422 129 448 100 539 100 c 1
 539 -0 l 1
 434 0 391 34 377 109 c 1
 377 108 l 1
 333 29 208 0 137 -0 c 0
 103 0 64 58 64 100 c 0
86 528 m 1
 147 610 l 1
 154 607 l 1
 177 514 193 421 193 342 c 0
 193 261 176 195 131 157 c 1
 115 162 l 1
 130 193 135 234 135 276 c 0
 135 366 109 469 86 528 c 1
EndSplineSet
Colour: ffda6b
EndChar

StartChar: _.sing.alef_maad
Encoding: 65671 -1 408
Width: 434
VWidth: 1352
Flags: HMW
LayerCount: 2
Fore
SplineSet
64 -57 m 1
 64 72 142 100 247 100 c 0
 311 100 380 99 398 161 c 1
 414 150 l 1
 412 40 365 0 241 0 c 0
 229 0 217 0 205 0 c 0
 149 0 99 -7 80 -68 c 1
 64 -57 l 1
EndSplineSet
Colour: ffda6b
EndChar

StartChar: _.sing.star
Encoding: 65672 -1 409
Width: 445
VWidth: 1197
Flags: HMW
LayerCount: 2
Fore
SplineSet
64 496 m 1
 73 496 l 1
 78 482 90 476 110 474 c 0
 163 469 203 445 234 402 c 1
 230 402 l 2
 228 402 226 403 223 403 c 0
 208 403 181 399 160 399 c 0
 102 399 64 438 64 496 c 1
66 290 m 1
 70 296 l 1
 81 296 l 2
 93 296 124 342 130 348 c 0
 152 370 186 382 230 386 c 1
 234 383 l 1
 227 376 220 365 213 351 c 0
 183 298 151 271 117 271 c 0
 103 271 86 276 66 290 c 1
193 522 m 0
 193 558 212 584 246 601 c 1
 250 594 l 1
 245 589 243 582 243 573 c 0
 243 562 263 515 265 509 c 0
 266 504 266 494 266 477 c 0
 266 461 261 439 249 409 c 1
 243 409 l 1
 242 410 234 425 218 452 c 0
 202 480 193 504 193 522 c 0
223 309 m 0
 223 327 229 350 243 378 c 1
 249 378 l 1
 261 353 272 332 283 316 c 0
 293 300 298 282 298 264 c 0
 298 230 280 204 246 186 c 1
 241 193 l 1
 245 197 247 202 247 209 c 0
 247 218 226 270 224 276 c 0
 224 281 223 291 223 309 c 0
257 383 m 1
 261 388 l 1
 271 387 281 386 295 386 c 2
 331 386 l 2
 386 386 425 348 425 293 c 2
 425 290 l 1
 416 290 l 1
 412 302 394 310 362 310 c 0
 330 310 295 334 257 383 c 1
257 404 m 1
 288 442 300 513 368 513 c 0
 389 513 408 508 425 497 c 1
 420 490 l 1
 400 490 385 479 375 458 c 1
 345 419 308 400 261 400 c 1
 257 404 l 1
EndSplineSet
Colour: ffda6b
EndChar

StartChar: _.sing.zarb
Encoding: 65673 -1 410
Width: 430
VWidth: 1279
Flags: HMW
LayerCount: 2
Fore
SplineSet
64 394 m 0
 64 417 93 446 115 446 c 0
 121 446 126 443 130 439 c 2
 237 332 l 1
 343 439 l 2
 348 443 354 446 360 446 c 0
 383 446 410 419 410 396 c 0
 410 390 408 384 403 379 c 2
 298 273 l 1
 397 173 l 2
 401 169 404 164 404 158 c 0
 404 136 375 107 353 107 c 0
 347 107 341 109 337 113 c 2
 237 213 l 1
 138 113 l 2
 134 109 128 107 122 107 c 0
 100 107 71 135 71 157 c 0
 71 163 73 168 77 172 c 2
 177 273 l 1
 70 379 l 2
 66 383 64 388 64 394 c 0
EndSplineSet
Colour: ffda6b
EndChar

StartChar: _.sing.khateh_amoodi
Encoding: 65674 -1 411
Width: 164
VWidth: 1331
Flags: HMW
LayerCount: 2
Fore
SplineSet
64 27 m 2
 64 283 l 2
 64 300 84 309 104 309 c 0
 124 309 144 300 144 283 c 2
 144 27 l 2
 144 10 124 1 104 1 c 0
 84 1 64 10 64 27 c 2
64 425 m 2
 64 681 l 2
 64 698 85 707 105 707 c 0
 125 707 144 699 144 681 c 2
 144 425 l 2
 144 408 124 399 104 399 c 0
 84 399 64 408 64 425 c 2
EndSplineSet
Colour: ffda6b
EndChar

StartChar: _.num.0.fa
Encoding: 65675 -1 412
Width: 378
VWidth: 1424
Flags: HMW
LayerCount: 2
Fore
SplineSet
64 235 m 0
 64 321 115 377 190 377 c 0
 268 376 314 315 314 235 c 0
 314 150 264 104 190 104 c 0
 114 104 64 154 64 235 c 0
134 239 m 0
 134 200 157 181 187 181 c 0
 188 181 189 181 190 181 c 0
 222 181 245 201 245 239 c 0
 245 275 223 296 190 296 c 0
 156 296 134 275 134 239 c 0
EndSplineSet
Colour: ffda6b
EndChar

StartChar: _.num.0.ar
Encoding: 65676 -1 413
Width: 292
VWidth: 1352
Flags: HMW
LayerCount: 2
Fore
SplineSet
64 252 m 1
 106 264 137 287 153 321 c 1
 167 282 192 250 228 225 c 1
 187 213 156 189 139 156 c 1
 124 194 100 227 64 252 c 1
EndSplineSet
Colour: ffda6b
EndChar
